<svg xmlns="http://www.w3.org/2000/svg" viewBox="0 0 93 12">
  <g id="anime-mini-logo" fill="none" fill-rule="evenodd" stroke-linecap="square">
    <path id="a" stroke="#373535" stroke-width="2" d="M1 1h9.994c.92 0 1.665.744 1.665 1.662v6.676c0 .918-.746 1.662-1.665 1.662H2.666C1.746 11 1 10.256 1 9.338V5.981c0-.918.746-1.662 1.666-1.662h6.662"/>
    <path id="n" stroke="#373535" stroke-width="2" d="M16.036 11V2.667c0-.92.744-1.667 1.662-1.667h8.336c.917 0 1.661.746 1.661 1.667V11"/>
    <path id="i" stroke="#373535" stroke-width="2" d="M31 11V4.36"/>
    <path id="." stroke="#373535" stroke-width="2" d="M31 1.05V1"/>
    <path id="m" stroke="#373535" stroke-width="2" d="M34.45 11V2.667c0-.92.745-1.667 1.665-1.667h39.183c.92 0 1.666.746 1.666 1.667V11"/>
    <path id="e" stroke="#373535" stroke-width="2" d="M92 11h-9.994c-.92 0-1.665-.744-1.665-1.662V2.662c0-.918.746-1.662 1.665-1.662h8.328C91.254 1 92 1.744 92 2.662v3.324c0 .918-.746 1.662-1.666 1.662h-6.662"/>
    <path id="m-small-screen" stroke="#373535" stroke-width="2" d="M34.45 11V2.667c0-.92.562-1.667 1.255-1.667H56.195c.693 0 1.255.746 1.255 1.667V11"/>
    <path id="e-small-screen" stroke="#373535" stroke-width="2" d="M72.66 11h-9.994C61.746 11 61 10.256 61 9.338V2.662C61 1.744 61.746 1 62.666 1h8.328c.92 0 1.665.744 1.665 1.662v3.324c0 .918-.746 1.662-1.665 1.662H64.33"/>
  </g>
</svg>
