<svg xmlns="http://www.w3.org/2000/svg" viewBox="0 0 256 124">
  <g id="Page-2" fill="none" fill-rule="evenodd">
    <g id="letter-m-2" stroke-width="6">
      <path id="line" stroke="#61C3FF" d="M8 120V32C8 18.745 18.745 8 32 8c24 0 64 40 96 40s72-40 96-40c13.255 0 24 10.745 24 24v88"/>
      <path id="line" stroke="#1CE2B2" d="M16 120V32c0-8.842 7.163-16 16-16 16 0 64 38 96 38s80-38 96-38c8.832 0 15.986 7.248 16 16v88"/>
      <path id="line" stroke="#FF1461" d="M24 120V32c0-4.421 3.582-8 8-8 13.397 0 64 36 96 36s82.73-36 96-36c4.424 0 8 3.65 8 8v88"/>
    </g>
  </g>
</svg>
