<svg xmlns="http://www.w3.org/2000/svg" viewBox="0 0 256 124">
  <g id="Page-2" fill="none" fill-rule="evenodd">
    <g id="letter-m-3">
      <path id="line" stroke="#61C3FF" stroke-width="6" d="M8 120V32C8 18.745 18.745 8 32 8c24 0 64 .1 96 .1s72-.1 96-.1c13.255 0 24 10.745 24 24v88"/>
      <path id="line" stroke="#1CE2B2" stroke-width="6" d="M16 120V32c0-8.842 7.163-16 16-16 16 0 64 .1 96 .1s80-.1 96-.1c8.832 0 15.986 7.248 16 16v88"/>
      <path id="line" stroke="#FF1461" stroke-width="6" d="M24 120V32c0-4.421 3.582-8 8-8 13.397 0 64 .1 96 .1s82.73-.1 96-.1c4.424 0 8 3.65 8 8v88"/>
      <path id="fill" stroke="#FFFFFF" stroke-width="24" d="M16 124V32c0-8.837 7.174-16 16-16 42.62.067 74.62.1 96 .1 21.286 0 53.286-.033 96-.1 8.826 0 16 7.163 16 16v92"/>
    </g>
  </g>
</svg>
