<svg xmlns="http://www.w3.org/2000/svg" viewBox="0 0 144 124">
  <g id="Page-2" fill="none" fill-rule="evenodd">
    <g id="letter-n">
      <path id="line" stroke="#61C3FF" stroke-width="6" d="M8 120V32C8 18.745 18.745 8 32 8h80c13.255 0 24 10.745 24 24v88"/>
      <path id="line" stroke="#1CE2B2" stroke-width="6" d="M128 120V32c-.014-8.752-7.168-15.907-16-16H32c-8.837 0-16 7.158-16 16v88"/>
      <path id="line" stroke="#FF1461" stroke-width="6" d="M24 120V32c0-4.421 3.582-8 8-8h80c4.423.073 8 3.65 8 8v88"/>
      <path id="fill" stroke="#FFFFFF" stroke-width="24" d="M128 124V32c0-8.837-7.185-16-16-16H32c-8.815 0-16 7.163-16 16v92"/>
    </g>
  </g>
</svg>
