<svg xmlns="http://www.w3.org/2000/svg" viewBox="0 0 144 124">
  <g id="Page-2" fill="none" fill-rule="evenodd">
    <g id="letter-e">
      <path id="stroke" stroke="#61C3FF" stroke-width="6" d="M40 88h72c13.255 0 24-10.745 24-24V32c0-13.255-10.745-24-24-24H32C18.745 8 8 18.745 8 32v64c0 13.255 10.745 24 24 24h104"/>
      <path id="stroke" stroke="#1CE2B2" stroke-width="6" d="M136 112l-104.085.014c-8.837 0-16-7.163-16-16.014L16 32c.008-8.831 7.169-15.986 16-15.986L112 16c8.837 0 16 7.163 16 16v32c0 8.837-7.163 16-16 16H40"/>
      <path id="stroke" stroke="#FF1461" stroke-width="6" d="M40 72h72a8 8 0 0 0 8-8V32a8 8 0 0 0-8-8H31.992a8 8 0 0 0-8 7.992l-.068 64c0 4.426 3.581 8.008 8 8.008H136"/>
      <path id="eFill" stroke="#FFFFFF" stroke-width="24" d="M36 80h76c8.837-.18 16-7.323 16-16V32c0-8.857-7.163-16-16-16H32c-8.837 0-16 7.143-16 16v64c0 8.857 7.163 16 16 16h108"/>
    </g>
  </g>
</svg>
