<svg xmlns="http://www.w3.org/2000/svg" viewBox="0 0 1088 590" style="background:#191924">
  <g id="Page-2" fill="none" fill-rule="evenodd">
    <g id="anime-logo">
      <g id="strokes" stroke-width="6" transform="translate(248 228)">
        <g id="aStrokes">
          <path id="stroke" stroke="#61C3FF" d="M0 0h104c13.255 0 24 10.745 24 24v64c0 13.255-10.745 24-24 24H24c-13.255 0-24-10.745-24-24V56c0-13.255 10.745-24 24-24h72"/>
          <path id="stroke" stroke="#1CE2B2" d="M0 8.013L104 8c8.837 0 16 7.164 16 16v.014L119.915 88c-.008 8.831-7.169 15.986-16 15.986l-79.92.014c-8.837 0-16-7.163-16-16V56.009c0-8.837 7.163-16 16-16h71.937"/>
          <path id="stroke" stroke="#FF1461" d="M0 16h104a8 8 0 0 1 8 8v.008l-.068 64a8 8 0 0 1-8 7.992H23.99a8 8 0 0 1-8-8V56a8 8 0 0 1 8-8h71.946"/>
        </g>
        <g id="nStrokes" transform="translate(144)">
          <path id="stroke" stroke="#61C3FF" d="M0 112V24C0 10.745 10.745 0 24 0h80c13.255 0 24 10.745 24 24v88"/>
          <path id="stroke" stroke="#1CE2B2" d="M8 112V24c0-8.842 7.163-16 16-16h80c8.832.093 15.986 7.248 16 16v88"/>
          <path id="stroke" stroke="#FF1461" d="M16 112V24c0-4.421 3.582-8 8-8h80c4.423.073 8 3.65 8 8v88"/>
        </g>
        <g id="iStrokes" transform="translate(287)">
          <path id="stroke" stroke="#61C3FF" d="M1 112V0"/>
          <path id="stroke" stroke="#1CE2B2" d="M9 112V0"/>
          <path id="stroke" stroke="#FF1461" d="M17 112V0"/>
        </g>
        <g id="mStrokes" transform="translate(320)">
          <path id="stroke" stroke="#61C3FF" d="M0 112V24C0 10.745 10.745 0 24 0h80c13.255 0 24 10.745 24 24v88"/>
          <path id="stroke" stroke="#1CE2B2" d="M8 112V24c0-8.842 7.163-16 16-16h80c8.831.093 15.986 7.248 16 16v88"/>
          <path id="stroke" stroke="#FF1461" d="M16 112V24c0-4.421 3.582-8 8-8h80c4.423.073 8 3.65 8 8v88"/>
        </g>
        <g id="eStrokes" transform="translate(464)">
          <path id="stroke" stroke="#61C3FF" d="M96 32H24C10.745 32 0 42.745 0 56v32c0 13.255 10.745 24 24 24h80c13.255 0 24-10.745 24-24V24c0-13.255-10.745-24-24-24H0" transform="rotate(-180 64 56)"/>
          <path id="stroke" stroke="#1CE2B2" d="M103.915 40.014h-72c-8.837 0-16 7.164-16 16v32c0 8.837 7.163 16 16 16l80-.014c8.831 0 15.992-7.155 16-15.986l.085-64C128 15.164 120.837 8 112 8L7.915 8.014" transform="rotate(-180 67.958 56.007)"/>
          <path id="stroke" stroke="#FF1461" d="M111.924 48h-72a8 8 0 0 0-8 8v32a8 8 0 0 0 8 8h80.008a8 8 0 0 0 8-7.992l.068-64c0-4.426-3.582-8.008-8-8.008H15.924" transform="rotate(-180 71.962 56)"/>
        </g>
      </g>
      <g id="fills" stroke="#FFFFFF" stroke-width="24" transform="translate(244 224)">
        <path id="aFill" d="M0 12h108c8.837 0 16 7.143 16 16v64c0 8.857-7.163 16-16 16H28c-8.837 0-16-7.143-16-16V60c0-8.991 7.163-16.134 16-16h76"/>
        <path id="nFill" d="M156 120V28c0-8.837 7.185-16 16-16h80c8.815 0 16 7.163 16 16v92"/>
        <path id="iFill" d="M300 120V0"/>
        <path id="mFill" d="M332 120V28c0-8.837 7.174-16 16-16 5.286.067 18.62.1 40 .1 21.286 0 34.62-.033 40-.1 8.826 0 16 7.163 16 16v92"/>
        <path id="eFill" d="M496 76h76c8.837-.18 16-7.323 16-16V28c0-8.857-7.163-16-16-16h-80c-8.837 0-16 7.143-16 16v64c0 8.857 7.163 16 16 16h108"/>
      </g>
      <rect id="dotEl" width="24" height="24" x="476" y="224" fill="#FFFFFF"/>
    </g>
  </g>
</svg>
