<svg xmlns="http://www.w3.org/2000/svg" viewBox="0 0 123 26">
  <g id="Page-2" fill="none" fill-rule="evenodd">
    <g id="anime-mini-logo" stroke="#FFFFFF" stroke-width="4">
      <path id="a" d="M3 5h18a2.663 2.663 0 0 1 2.667 2.66v10.68A2.663 2.663 0 0 1 21 21H7.667A2.663 2.663 0 0 1 5 18.34v-5.37a2.663 2.663 0 0 1 2.667-2.66h12.666"/>
      <path id="n" d="M29 23V7.667A2.663 2.663 0 0 1 31.66 5h13.346c1.47 0 2.66 1.194 2.66 2.667V23"/>
      <path id="i" d="M53 23V8.303"/>
      <path id="dot" d="M53 6.997V3.003"/>
      <path id="m" d="M58.333 23V7.667A2.665 2.665 0 0 1 60.997 5H91.67a2.665 2.665 0 0 1 2.663 2.667V23"/>
      <path id="e" d="M120.333 21h-18a2.663 2.663 0 0 1-2.666-2.66V7.66A2.663 2.663 0 0 1 102.333 5h13.334a2.663 2.663 0 0 1 2.666 2.66v5.318a2.663 2.663 0 0 1-2.666 2.659H103"/>
    </g>
  </g>
</svg>
