<svg xmlns="http://www.w3.org/2000/svg" viewBox="0 0 706 592">
  <g id="Page-1" fill="none" fill-rule="evenodd">
    <g id="easings-anim">
      <g id="grid" stroke="#51516A" transform="translate(1 137)">
        <rect id="Rectangle-2" width="32" height="319"/>
        <rect id="Rectangle-2-Copy" width="32" height="319" x="32"/>
        <rect id="Rectangle-2-Copy-2" width="32" height="319" x="64"/>
        <rect id="Rectangle-2-Copy-3" width="32" height="319" x="96"/>
        <rect id="Rectangle-2-Copy-7" width="32" height="319" x="128"/>
        <rect id="Rectangle-2-Copy-6" width="32" height="319" x="160"/>
        <rect id="Rectangle-2-Copy-5" width="32" height="319" x="192"/>
        <rect id="Rectangle-2-Copy-4" width="32" height="319" x="224"/>
        <rect id="Rectangle-2-Copy-11" width="32" height="319" x="256"/>
        <rect id="Rectangle-2-Copy-10" width="32" height="319" x="288"/>
        <rect id="Rectangle-2-Copy-9" width="32" height="319" x="320"/>
        <rect id="Rectangle-2-Copy-8" width="32" height="319" x="352"/>
        <rect id="Rectangle-2-Copy-15" width="32" height="319" x="384"/>
        <rect id="Rectangle-2-Copy-14" width="32" height="319" x="416"/>
        <rect id="Rectangle-2-Copy-13" width="32" height="319" x="448"/>
        <rect id="Rectangle-2-Copy-12" width="32" height="319" x="480"/>
        <rect id="Rectangle-2-Copy-19" width="32" height="319" x="512"/>
        <rect id="Rectangle-2-Copy-18" width="32" height="319" x="544"/>
        <rect id="Rectangle-2-Copy-17" width="32" height="319" x="576"/>
        <rect id="Rectangle-2-Copy-16" width="32" height="319" x="608"/>
        <rect id="Rectangle-2-Copy-21" width="32" height="319" x="672"/>
        <rect id="Rectangle" width="640" height="32" y="31"/>
        <rect id="Rectangle-Copy" width="640" height="32" y="63"/>
        <rect id="Rectangle-Copy-2" width="640" height="32" y="95"/>
        <rect id="Rectangle-Copy-3" width="640" height="32" y="127"/>
        <rect id="Rectangle-Copy-4" width="640" height="32" y="159"/>
        <rect id="Rectangle-Copy-9" width="640" height="32" y="191"/>
        <rect id="Rectangle-Copy-8" width="640" height="32" y="223"/>
        <rect id="Rectangle-Copy-7" width="640" height="32" y="255"/>
        <rect id="Rectangle-Copy-17" width="32" height="32" x="672" y="31"/>
        <rect id="Rectangle-Copy-16" width="32" height="32" x="672" y="63"/>
        <rect id="Rectangle-Copy-15" width="32" height="32" x="672" y="95"/>
        <rect id="Rectangle-Copy-14" width="32" height="32" x="672" y="127"/>
        <rect id="Rectangle-Copy-5" width="32" height="32" x="672" y="159"/>
        <rect id="Rectangle-Copy-13" width="32" height="32" x="672" y="191"/>
        <rect id="Rectangle-Copy-12" width="32" height="32" x="672" y="223"/>
        <rect id="Rectangle-Copy-11" width="32" height="32" x="672" y="255"/>
      </g>
      <g id="Group" fill-rule="nonzero" stroke-width="2" transform="translate(1 17)">
        <polyline id="Shape-Copy-3" stroke="#5A87FF" points="0 439 6.4 439 12.8 438.467 19.2 438.467 25.6 437.933 32 436.867 38.4 436.333 44.8 435.267 51.2 434.2 57.6 432.6 64 431 70.4 429.4 76.8 427.8 83.2 425.667 89.6 423.533 96 421.4 102.4 419.267 108.8 416.6 115.2 413.933 121.6 411.267 128 408.6 134.4 405.4 140.8 402.2 147.2 399 153.6 395.8 160 392.067 166.4 388.333 172.8 384.6 179.2 380.867 185.6 377.133 192 372.867 198.4 369.133 204.8 364.867 211.2 360.6 217.6 356.333 224 351.533 230.4 347.267 236.8 342.467 243.2 337.667 249.6 333.4 256 328.6 262.4 323.8 268.8 319 275.2 313.667 281.6 308.867 288 304.067 294.4 299.267 300.8 293.933 307.2 289.133 313.6 283.8 320 279 326.4 274.2 332.8 268.867 339.2 264.067 345.6 258.733 352 253.933 358.4 249.133 364.8 244.333 371.2 239 377.6 234.2 384 229.4 390.4 224.6 396.8 220.333 403.2 215.533 409.6 210.733 416 206.467 422.4 201.667 428.8 197.4 435.2 193.133 441.6 188.867 448 185.133 454.4 180.867 460.8 177.133 467.2 173.4 473.6 169.667 480 165.933 486.4 162.2 492.8 159 499.2 155.8 505.6 152.6 512 149.4 518.4 146.733 524.8 144.067 531.2 141.4 537.6 138.733 544 136.6 550.4 134.467 556.8 132.333 563.2 130.2 569.6 128.6 576 127 582.4 125.4 588.8 123.8 595.2 122.733 601.6 121.667 608 121.133 614.4 120.067 620.8 119.533 627.2 119.533 633.6 119 640 119"/>
        <polyline id="Shape-Copy-6" stroke="#5A87FF" points="0 439 6.4 439 12.8 439 19.2 438.467 25.6 437.933 32 437.4 38.4 436.867 44.8 435.8 51.2 434.733 57.6 433.667 64 432.6 70.4 431 76.8 429.933 83.2 428.333 89.6 426.2 96 424.6 102.4 422.467 108.8 420.333 115.2 418.2 121.6 416.067 128 413.4 134.4 410.733 140.8 408.067 147.2 405.4 153.6 402.2 160 399 166.4 395.8 172.8 392.6 179.2 388.867 185.6 385.133 192 381.4 198.4 377.667 204.8 373.4 211.2 369.133 217.6 364.867 224 360.6 230.4 355.8 236.8 351.533 243.2 346.733 249.6 341.4 256 336.6 262.4 331.267 268.8 325.933 275.2 320.6 281.6 315.267 288 309.4 294.4 303.533 300.8 297.667 307.2 291.8 313.6 285.4 320 279 326.4 272.6 332.8 266.2 339.2 260.333 345.6 254.467 352 248.6 358.4 242.733 364.8 237.4 371.2 232.067 377.6 226.733 384 221.4 390.4 216.6 396.8 211.267 403.2 206.467 409.6 202.2 416 197.4 422.4 193.133 428.8 188.867 435.2 184.6 441.6 180.333 448 176.6 454.4 172.867 460.8 169.133 467.2 165.4 473.6 162.2 480 159 486.4 155.8 492.8 152.6 499.2 149.933 505.6 147.267 512 144.6 518.4 141.933 524.8 139.8 531.2 137.667 537.6 135.533 544 133.4 550.4 131.8 556.8 129.667 563.2 128.067 569.6 127 576 125.4 582.4 124.333 588.8 123.267 595.2 122.2 601.6 121.133 608 120.6 614.4 120.067 620.8 119.533 627.2 119 633.6 119 640 119"/>
        <polyline id="Shape-Copy-9" stroke="#5A87FF" points="0 439 6.4 439 12.8 439 19.2 439 25.6 439 32 439 38.4 438.467 44.8 438.467 51.2 438.467 57.6 437.933 64 437.933 70.4 437.4 76.8 436.867 83.2 436.333 89.6 435.267 96 434.733 102.4 433.667 108.8 432.6 115.2 431.533 121.6 430.467 128 428.867 134.4 427.267 140.8 425.133 147.2 423.533 153.6 421.4 160 419.267 166.4 416.6 172.8 413.933 179.2 410.733 185.6 407.533 192 404.333 198.4 401.133 204.8 396.867 211.2 393.133 217.6 388.867 224 384.067 230.4 379.267 236.8 373.933 243.2 368.6 249.6 363.267 256 356.867 262.4 351 268.8 344.067 275.2 337.133 281.6 330.2 288 322.2 294.4 314.2 300.8 306.2 307.2 297.667 313.6 288.6 320 279 326.4 269.4 332.8 260.333 339.2 251.8 345.6 243.8 352 235.8 358.4 227.8 364.8 220.867 371.2 213.933 377.6 207 384 201.133 390.4 194.733 396.8 189.4 403.2 184.067 409.6 178.733 416 173.933 422.4 169.133 428.8 164.867 435.2 161.133 441.6 156.867 448 153.667 454.4 150.467 460.8 147.267 467.2 144.067 473.6 141.4 480 139.267 486.4 136.6 492.8 134.467 499.2 132.867 505.6 130.733 512 129.133 518.4 127.533 524.8 126.467 531.2 125.4 537.6 124.333 544 123.267 550.4 122.733 556.8 121.667 563.2 121.133 569.6 120.6 576 120.067 582.4 120.067 588.8 119.533 595.2 119.533 601.6 119.533 608 119 614.4 119 620.8 119 627.2 119 633.6 119 640 119"/>
        <polyline id="Shape-Copy-12" stroke="#5A87FF" points="0 439 6.4 439 12.8 439 19.2 439 25.6 439 32 439 38.4 439 44.8 439 51.2 439 57.6 439 64 439 70.4 438.467 76.8 438.467 83.2 438.467 89.6 437.933 96 437.933 102.4 437.4 108.8 436.867 115.2 436.333 121.6 435.8 128 434.733 134.4 434.2 140.8 433.133 147.2 432.067 153.6 430.467 160 428.867 166.4 427.267 172.8 425.133 179.2 423 185.6 420.867 192 418.2 198.4 415.533 204.8 412.333 211.2 408.6 217.6 404.867 224 400.6 230.4 395.8 236.8 391 243.2 385.667 249.6 379.8 256 373.4 262.4 366.467 268.8 359.533 275.2 351.533 281.6 343 288 333.933 294.4 324.333 300.8 314.2 307.2 303 313.6 291.267 320 279 326.4 266.733 332.8 255 339.2 243.8 345.6 233.667 352 224.067 358.4 215 364.8 206.467 371.2 198.467 377.6 191.533 384 184.6 390.4 178.2 396.8 172.333 403.2 167 409.6 162.2 416 157.4 422.4 153.133 428.8 149.4 435.2 145.667 441.6 142.467 448 139.8 454.4 137.133 460.8 135 467.2 132.867 473.6 130.733 480 129.133 486.4 127.533 492.8 125.933 499.2 124.867 505.6 123.8 512 123.267 518.4 122.2 524.8 121.667 531.2 121.133 537.6 120.6 544 120.067 550.4 120.067 556.8 119.533 563.2 119.533 569.6 119.533 576 119 582.4 119 588.8 119 595.2 119 601.6 119 608 119 614.4 119 620.8 119 627.2 119 633.6 119 640 119"/>
        <polyline id="Shape-Copy-15" stroke="#5A87FF" points="0 439 6.4 439 12.8 439 19.2 439 25.6 439 32 439 38.4 439 44.8 439 51.2 439 57.6 439 64 439 70.4 439 76.8 439 83.2 439 89.6 438.467 96 438.467 102.4 438.467 108.8 438.467 115.2 437.933 121.6 437.933 128 437.4 134.4 436.867 140.8 436.333 147.2 435.8 153.6 434.733 160 434.2 166.4 433.133 172.8 431.533 179.2 429.933 185.6 428.333 192 426.733 198.4 424.6 204.8 421.933 211.2 418.733 217.6 415.533 224 412.333 230.4 408.067 236.8 403.267 243.2 398.467 249.6 392.6 256 386.733 262.4 379.8 268.8 372.333 275.2 363.8 281.6 354.733 288 344.6 294.4 333.4 300.8 321.667 307.2 308.333 313.6 294.467 320 279 326.4 263.533 332.8 249.667 339.2 236.333 345.6 224.6 352 213.4 358.4 203.267 364.8 194.2 371.2 185.667 377.6 178.2 384 171.267 390.4 165.4 396.8 159.533 403.2 154.733 409.6 149.933 416 145.667 422.4 142.467 428.8 139.267 435.2 136.067 441.6 133.4 448 131.267 454.4 129.667 460.8 128.067 467.2 126.467 473.6 124.867 480 123.8 486.4 123.267 492.8 122.2 499.2 121.667 505.6 121.133 512 120.6 518.4 120.067 524.8 120.067 531.2 119.533 537.6 119.533 544 119.533 550.4 119.533 556.8 119 563.2 119 569.6 119 576 119 582.4 119 588.8 119 595.2 119 601.6 119 608 119 614.4 119 620.8 119 627.2 119 633.6 119 640 119"/>
        <polyline id="Shape-Copy-18" stroke="#5A87FF" points="0 439 6.4 439 12.8 439 19.2 439 25.6 438.467 32 438.467 38.4 438.467 44.8 438.467 51.2 438.467 57.6 438.467 64 438.467 70.4 438.467 76.8 437.933 83.2 437.933 89.6 437.933 96 437.933 102.4 437.4 108.8 437.4 115.2 436.867 121.6 436.867 128 436.333 134.4 436.333 140.8 435.8 147.2 435.267 153.6 434.733 160 434.2 166.4 433.133 172.8 432.6 179.2 431.533 185.6 430.467 192 428.867 198.4 427.267 204.8 425.667 211.2 424.067 217.6 421.4 224 419.267 230.4 416.067 236.8 412.867 243.2 408.6 249.6 404.333 256 399 262.4 393.133 268.8 386.2 275.2 378.2 281.6 369.133 288 359 294.4 347.267 300.8 333.4 307.2 317.933 313.6 299.8 320 279 326.4 258.2 332.8 240.067 339.2 224.6 345.6 210.733 352 199 358.4 188.867 364.8 179.8 371.2 171.8 377.6 164.867 384 159 390.4 153.667 396.8 149.4 403.2 145.133 409.6 141.933 416 139.267 422.4 136.6 428.8 133.933 435.2 132.333 441.6 130.733 448 129.133 454.4 127.533 460.8 126.467 467.2 125.4 473.6 124.867 480 123.8 486.4 123.267 492.8 122.733 499.2 122.2 505.6 121.667 512 121.667 518.4 121.133 524.8 121.133 531.2 120.6 537.6 120.6 544 120.067 550.4 120.067 556.8 120.067 563.2 120.067 569.6 119.533 576 119.533 582.4 119.533 588.8 119.533 595.2 119.533 601.6 119.533 608 119.533 614.4 119.533 620.8 119 627.2 119 633.6 119 640 119"/>
        <polyline id="Shape-Copy-24" stroke="#5A87FF" points="0 439 6.4 439 12.8 439.533 19.2 440.6 25.6 441.133 32 442.733 38.4 443.8 44.8 445.4 51.2 447.533 57.6 449.133 64 451.267 70.4 452.867 76.8 455 83.2 457.133 89.6 458.733 96 460.867 102.4 462.467 108.8 464.6 115.2 466.2 121.6 467.267 128 468.867 134.4 469.4 140.8 470.467 147.2 471 153.6 471 160 471 166.4 470.467 172.8 469.4 179.2 468.333 185.6 466.2 192 464.067 198.4 461.4 204.8 458.2 211.2 454.467 217.6 450.2 224 445.4 230.4 439.533 236.8 433.133 243.2 426.2 249.6 418.733 256 410.2 262.4 401.133 268.8 391 275.2 380.333 281.6 368.6 288 355.8 294.4 342.467 300.8 328.067 307.2 312.6 313.6 296.6 320 279 326.4 261.4 332.8 245.4 339.2 229.933 345.6 215.533 352 202.2 358.4 189.4 364.8 177.667 371.2 167 377.6 156.867 384 147.8 390.4 139.267 396.8 131.8 403.2 124.867 409.6 118.467 416 112.6 422.4 107.8 428.8 103.533 435.2 99.8 441.6 96.6 448 93.933 454.4 91.8 460.8 89.667 467.2 88.6 473.6 87.533 480 87 486.4 87 492.8 87 499.2 87.533 505.6 88.6 512 89.133 518.4 90.733 524.8 91.8 531.2 93.4 537.6 95.533 544 97.133 550.4 99.267 556.8 100.867 563.2 103 569.6 105.133 576 106.733 582.4 108.867 588.8 110.467 595.2 112.6 601.6 114.2 608 115.267 614.4 116.867 620.8 117.4 627.2 118.467 633.6 119 640 119"/>
        <polyline id="Shape-Copy-27" stroke="#5A87FF" points="0 439.635 6.4 439.635 12.8 439.635 19.2 439.635 25.6 439.635 32 439.101 38.4 439.101 44.8 439.101 51.2 439.101 57.6 439.635 64 439.635 70.4 439.635 76.8 440.169 83.2 440.169 89.6 440.703 96 440.703 102.4 441.236 108.8 441.236 115.2 441.236 121.6 441.236 128 440.703 134.4 440.169 140.8 439.635 147.2 438.568 153.6 436.966 160 435.899 166.4 434.297 172.8 433.23 179.2 432.162 185.6 431.628 192 432.162 198.4 433.23 204.8 435.365 211.2 439.101 217.6 443.905 224 449.777 230.4 456.182 236.8 463.122 243.2 469.527 249.6 474.331 256 477 262.4 477 268.8 472.196 275.2 462.588 281.6 447.108 288 425.757 294.4 399.068 300.8 369.176 307.2 336.615 313.6 305.655 320 279.5 326.4 253.345 332.8 222.385 339.2 189.824 345.6 159.932 352 133.243 358.4 111.892 364.8 96.412 371.2 86.804 377.6 82 384 82 390.4 84.669 396.8 89.473 403.2 95.878 409.6 102.818 416 109.223 422.4 115.095 428.8 119.899 435.2 123.635 441.6 125.77 448 126.838 454.4 127.372 460.8 126.838 467.2 125.77 473.6 124.703 480 123.101 486.4 122.034 492.8 120.432 499.2 119.365 505.6 118.831 512 118.297 518.4 117.764 524.8 117.764 531.2 117.764 537.6 117.764 544 118.297 550.4 118.297 556.8 118.831 563.2 118.831 569.6 119.365 576 119.365 582.4 119.365 588.8 119.899 595.2 119.899 601.6 119.899 608 119.899 614.4 119.365 620.8 119.365 627.2 119.365 633.6 119.365 640 119.365"/>
        <polyline id="Shape-Copy-2" stroke="#FF1461" points="0 439 6.4 434.2 12.8 428.867 19.2 424.067 25.6 418.733 32 413.933 38.4 409.133 44.8 403.8 51.2 399 57.6 393.667 64 388.867 70.4 384.067 76.8 379.267 83.2 373.933 89.6 369.133 96 364.333 102.4 359.533 108.8 354.733 115.2 349.933 121.6 345.133 128 340.333 134.4 335.533 140.8 330.733 147.2 325.933 153.6 321.133 160 316.333 166.4 312.067 172.8 307.267 179.2 303 185.6 298.2 192 293.933 198.4 289.133 204.8 284.867 211.2 280.6 217.6 276.333 224 272.067 230.4 267.8 236.8 263.533 243.2 259.267 249.6 255 256 250.733 262.4 247 268.8 242.733 275.2 239 281.6 235.267 288 231 294.4 227.267 300.8 223.533 307.2 219.8 313.6 216.067 320 212.867 326.4 209.133 332.8 205.933 339.2 202.2 345.6 199 352 195.8 358.4 192.6 364.8 189.4 371.2 186.2 377.6 183 384 180.333 390.4 177.133 396.8 174.467 403.2 171.8 409.6 168.6 416 165.933 422.4 163.8 428.8 161.133 435.2 158.467 441.6 156.333 448 153.667 454.4 151.533 460.8 149.4 467.2 147.267 473.6 145.133 480 143.533 486.4 141.4 492.8 139.8 499.2 137.667 505.6 136.067 512 134.467 518.4 133.4 524.8 131.8 531.2 130.2 537.6 129.133 544 128.067 550.4 126.467 556.8 125.4 563.2 124.867 569.6 123.8 576 122.733 582.4 122.2 588.8 121.667 595.2 121.133 601.6 120.6 608 120.067 614.4 119.533 620.8 119.533 627.2 119 633.6 119 640 119"/>
        <polyline id="Shape-Copy-5" stroke="#FF1461" points="0 439 6.4 432.6 12.8 426.2 19.2 420.333 25.6 413.933 32 408.067 38.4 401.667 44.8 395.8 51.2 389.933 57.6 384.067 64 378.2 70.4 372.333 76.8 367 83.2 361.133 89.6 355.8 96 349.933 102.4 344.6 108.8 339.267 115.2 333.933 121.6 329.133 128 323.8 134.4 318.467 140.8 313.667 147.2 308.867 153.6 304.067 160 299.267 166.4 294.467 172.8 289.667 179.2 284.867 185.6 280.067 192 275.8 198.4 271.533 204.8 266.733 211.2 262.467 217.6 258.2 224 254.467 230.4 250.2 236.8 245.933 243.2 242.2 249.6 237.933 256 234.2 262.4 230.467 268.8 226.733 275.2 223 281.6 219.267 288 216.067 294.4 212.333 300.8 209.133 307.2 205.4 313.6 202.2 320 199 326.4 195.8 332.8 192.6 339.2 189.933 345.6 186.733 352 183.533 358.4 180.867 364.8 178.2 371.2 175.533 377.6 172.867 384 170.2 390.4 167.533 396.8 165.4 403.2 162.733 409.6 160.6 416 157.933 422.4 155.8 428.8 153.667 435.2 151.533 441.6 149.933 448 147.8 454.4 145.667 460.8 144.067 467.2 142.467 473.6 140.867 480 139.267 486.4 137.667 492.8 136.067 499.2 134.467 505.6 132.867 512 131.8 518.4 130.733 524.8 129.133 531.2 128.067 537.6 127 544 126.467 550.4 125.4 556.8 124.333 563.2 123.8 569.6 122.733 576 122.2 582.4 121.667 588.8 121.133 595.2 120.6 601.6 120.067 608 120.067 614.4 119.533 620.8 119.533 627.2 119 633.6 119 640 119"/>
        <polyline id="Shape-Copy-8" stroke="#FF1461" points="0 439 6.4 429.4 12.8 420.333 19.2 411.267 25.6 402.2 32 393.133 38.4 384.6 44.8 376.6 51.2 368.067 57.6 360.067 64 352.067 70.4 344.6 76.8 337.133 83.2 329.667 89.6 322.733 96 315.267 102.4 308.867 108.8 301.933 115.2 295.533 121.6 289.133 128 282.733 134.4 276.867 140.8 271 147.2 265.133 153.6 259.267 160 253.933 166.4 248.6 172.8 243.267 179.2 238.467 185.6 233.667 192 228.867 198.4 224.067 204.8 219.8 211.2 215 217.6 210.733 224 207 230.4 202.733 236.8 199 243.2 195.267 249.6 191.533 256 188.333 262.4 184.6 268.8 181.4 275.2 178.2 281.6 175 288 172.333 294.4 169.133 300.8 166.467 307.2 163.8 313.6 161.667 320 159 326.4 156.867 332.8 154.2 339.2 152.067 345.6 149.933 352 148.333 358.4 146.2 364.8 144.6 371.2 142.467 377.6 140.867 384 139.267 390.4 138.2 396.8 136.6 403.2 135 409.6 133.933 416 132.867 422.4 131.8 428.8 130.733 435.2 129.667 441.6 128.6 448 127.533 454.4 127 460.8 125.933 467.2 125.4 473.6 124.867 480 123.8 486.4 123.267 492.8 122.733 499.2 122.2 505.6 122.2 512 121.667 518.4 121.133 524.8 120.6 531.2 120.6 537.6 120.067 544 120.067 550.4 120.067 556.8 119.533 563.2 119.533 569.6 119.533 576 119.533 582.4 119 588.8 119 595.2 119 601.6 119 608 119 614.4 119 620.8 119 627.2 119 633.6 119 640 119"/>
        <polyline id="Shape-Copy-11" stroke="#FF1461" points="0 439 6.4 426.2 12.8 413.933 19.2 402.2 25.6 391 32 379.8 38.4 368.6 44.8 358.467 51.2 348.333 57.6 338.2 64 329.133 70.4 319.533 76.8 311 83.2 302.467 89.6 293.933 96 285.933 102.4 278.467 108.8 271 115.2 263.533 121.6 256.6 128 250.2 134.4 243.8 140.8 237.4 147.2 231.533 153.6 225.667 160 220.333 166.4 215 172.8 209.667 179.2 204.867 185.6 200.067 192 195.8 198.4 191.533 204.8 187.267 211.2 183.533 217.6 179.8 224 176.067 230.4 172.867 236.8 169.667 243.2 166.467 249.6 163.267 256 160.6 262.4 157.933 268.8 155.267 275.2 152.6 281.6 150.467 288 148.333 294.4 146.2 300.8 144.067 307.2 142.467 313.6 140.867 320 139.267 326.4 137.667 332.8 136.067 339.2 134.467 345.6 133.4 352 132.333 358.4 130.733 364.8 130.2 371.2 129.133 377.6 128.067 384 127 390.4 126.467 396.8 125.933 403.2 124.867 409.6 124.333 416 123.8 422.4 123.267 428.8 122.733 435.2 122.2 441.6 122.2 448 121.667 454.4 121.133 460.8 121.133 467.2 120.6 473.6 120.6 480 120.067 486.4 120.067 492.8 120.067 499.2 119.533 505.6 119.533 512 119.533 518.4 119.533 524.8 119.533 531.2 119.533 537.6 119 544 119 550.4 119 556.8 119 563.2 119 569.6 119 576 119 582.4 119 588.8 119 595.2 119 601.6 119 608 119 614.4 119 620.8 119 627.2 119 633.6 119 640 119"/>
        <polyline id="Shape-Copy-14" stroke="#FF1461" points="0 439 6.4 423.533 12.8 408.067 19.2 393.667 25.6 379.8 32 366.467 38.4 353.667 44.8 341.4 51.2 329.667 57.6 318.467 64 307.8 70.4 297.667 76.8 288.067 83.2 278.467 89.6 269.4 96 260.867 102.4 252.867 108.8 244.867 115.2 237.4 121.6 230.467 128 224.067 134.4 217.667 140.8 211.267 147.2 205.4 153.6 200.067 160 194.733 166.4 189.933 172.8 185.133 179.2 180.867 185.6 176.6 192 172.867 198.4 169.133 204.8 165.4 211.2 162.2 217.6 159 224 156.333 230.4 153.133 236.8 151 243.2 148.333 249.6 146.2 256 144.067 262.4 141.933 268.8 139.8 275.2 138.2 281.6 136.6 288 135 294.4 133.933 300.8 132.333 307.2 131.267 313.6 130.2 320 129.133 326.4 128.067 332.8 127 339.2 126.467 345.6 125.4 352 124.867 358.4 124.333 364.8 123.8 371.2 123.267 377.6 122.733 384 122.2 390.4 121.667 396.8 121.667 403.2 121.133 409.6 121.133 416 120.6 422.4 120.6 428.8 120.067 435.2 120.067 441.6 120.067 448 119.533 454.4 119.533 460.8 119.533 467.2 119.533 473.6 119.533 480 119.533 486.4 119 492.8 119 499.2 119 505.6 119 512 119 518.4 119 524.8 119 531.2 119 537.6 119 544 119 550.4 119 556.8 119 563.2 119 569.6 119 576 119 582.4 119 588.8 119 595.2 119 601.6 119 608 119 614.4 119 620.8 119 627.2 119 633.6 119 640 119"/>
        <polyline id="Shape-Copy-17" stroke="#FF1461" points="0 439 6.4 417.667 12.8 397.4 19.2 378.733 25.6 361.667 32 345.133 38.4 330.2 44.8 315.8 51.2 303 57.6 290.733 64 279 70.4 268.333 76.8 258.2 83.2 249.133 89.6 240.067 96 232.067 102.4 224.6 108.8 217.667 115.2 210.733 121.6 204.867 128 199 134.4 193.667 140.8 188.867 147.2 184.067 153.6 179.8 160 175.533 166.4 171.8 172.8 168.067 179.2 164.867 185.6 161.667 192 159 198.4 156.333 204.8 153.667 211.2 151.533 217.6 149.4 224 147.267 230.4 145.133 236.8 143.533 243.2 141.933 249.6 140.333 256 139.267 262.4 137.667 268.8 136.6 275.2 135 281.6 133.933 288 133.4 294.4 132.333 300.8 131.267 307.2 130.733 313.6 129.667 320 129.133 326.4 128.067 332.8 127.533 339.2 127 345.6 126.467 352 125.933 358.4 125.4 364.8 125.4 371.2 124.867 377.6 124.333 384 123.8 390.4 123.8 396.8 123.267 403.2 123.267 409.6 122.733 416 122.733 422.4 122.2 428.8 122.2 435.2 121.667 441.6 121.667 448 121.667 454.4 121.133 460.8 121.133 467.2 121.133 473.6 121.133 480 120.6 486.4 120.6 492.8 120.6 499.2 120.6 505.6 120.6 512 120.067 518.4 120.067 524.8 120.067 531.2 120.067 537.6 120.067 544 120.067 550.4 120.067 556.8 119.533 563.2 119.533 569.6 119.533 576 119.533 582.4 119.533 588.8 119.533 595.2 119.533 601.6 119.533 608 119.533 614.4 119.533 620.8 119.533 627.2 119.533 633.6 119.533 640 119"/>
        <polyline id="Shape-Copy-20" stroke="#FF1461" points="0 439 6.4 393.667 12.8 375.533 19.2 361.133 25.6 349.4 32 339.267 38.4 329.667 44.8 321.133 51.2 313.667 57.6 306.2 64 299.267 70.4 292.867 76.8 287 83.2 281.133 89.6 275.8 96 270.467 102.4 265.133 108.8 260.333 115.2 256.067 121.6 251.267 128 247 134.4 242.733 140.8 239 147.2 234.733 153.6 231 160 227.267 166.4 223.533 172.8 220.333 179.2 217.133 185.6 213.4 192 210.733 198.4 207.533 204.8 204.333 211.2 201.667 217.6 198.467 224 195.8 230.4 193.133 236.8 190.467 243.2 187.8 249.6 185.667 256 183 262.4 180.867 268.8 178.2 275.2 176.067 281.6 173.933 288 171.8 294.4 169.667 300.8 167.533 307.2 165.933 313.6 163.8 320 161.667 326.4 160.067 332.8 158.467 339.2 156.333 345.6 154.733 352 153.133 358.4 151.533 364.8 149.933 371.2 148.333 377.6 147.267 384 145.667 390.4 144.6 396.8 143 403.2 141.933 409.6 140.333 416 139.267 422.4 138.2 428.8 137.133 435.2 136.067 441.6 135 448 133.933 454.4 132.867 460.8 131.8 467.2 130.733 473.6 130.2 480 129.133 486.4 128.6 492.8 127.533 499.2 127 505.6 125.933 512 125.4 518.4 124.867 524.8 124.333 531.2 123.8 537.6 123.267 544 122.733 550.4 122.2 556.8 121.667 563.2 121.133 569.6 121.133 576 120.6 582.4 120.067 588.8 120.067 595.2 119.533 601.6 119.533 608 119.533 614.4 119 620.8 119 627.2 119 633.6 119 640 119"/>
        <polyline id="Shape-Copy-23" stroke="#FF1461" points="0 439 6.4 424.067 12.8 409.667 19.2 395.8 25.6 381.933 32 368.6 38.4 355.8 44.8 343.533 51.2 331.267 57.6 319.533 64 308.333 70.4 297.133 76.8 286.467 83.2 276.333 89.6 266.2 96 256.6 102.4 247 108.8 238.467 115.2 229.4 121.6 221.4 128 213.4 134.4 205.4 140.8 197.933 147.2 191 153.6 184.067 160 177.667 166.4 171.267 172.8 165.4 179.2 159.533 185.6 153.667 192 148.867 198.4 143.533 204.8 139.267 211.2 134.467 217.6 130.2 224 126.467 230.4 122.733 236.8 119 243.2 115.8 249.6 112.6 256 109.933 262.4 107.267 268.8 104.6 275.2 101.933 281.6 99.8 288 98.2 294.4 96.6 300.8 95 307.2 93.4 313.6 91.8 320 90.733 326.4 90.2 332.8 89.133 339.2 88.6 345.6 88.067 352 87.533 358.4 87 364.8 87 371.2 87 377.6 87 384 87 390.4 87.533 396.8 88.067 403.2 88.067 409.6 88.6 416 89.133 422.4 90.2 428.8 90.733 435.2 91.8 441.6 92.333 448 93.4 454.4 94.467 460.8 95.533 467.2 96.067 473.6 97.133 480 98.733 486.4 99.8 492.8 100.867 499.2 101.933 505.6 103 512 104.067 518.4 105.133 524.8 106.2 531.2 107.267 537.6 108.867 544 109.4 550.4 110.467 556.8 111.533 563.2 112.6 569.6 113.667 576 114.2 582.4 115.267 588.8 115.8 595.2 116.867 601.6 117.4 608 117.933 614.4 117.933 620.8 118.467 627.2 119 633.6 119 640 119"/>
        <polyline id="Shape-Copy-26" stroke="#FF1461" points="0 439 6.4 411.262 12.8 373.39 19.2 329.117 25.6 281.109 32 232.035 38.4 184.028 44.8 139.755 51.2 99.748 57.6 66.143 64 38.939 70.4 19.203 76.8 6.401 83.2 0 89.6 .533 96 5.868 102.4 15.469 108.8 28.804 115.2 44.807 121.6 61.343 128 78.945 134.4 96.015 140.8 111.484 147.2 125.886 153.6 137.621 160 147.222 166.4 154.157 172.8 158.957 179.2 161.091 185.6 161.091 192 158.957 198.4 155.224 204.8 150.956 211.2 145.089 217.6 139.221 224 133.354 230.4 126.953 236.8 121.618 243.2 116.284 249.6 112.55 256 108.817 262.4 106.683 268.8 105.083 275.2 104.016 281.6 104.016 288 104.549 294.4 106.149 300.8 107.75 307.2 109.883 313.6 112.017 320 114.151 326.4 116.284 332.8 117.885 339.2 120.018 345.6 121.085 352 122.685 358.4 123.219 364.8 123.752 371.2 124.286 377.6 124.286 384 123.752 390.4 123.752 396.8 122.685 403.2 122.152 409.6 121.618 416 120.552 422.4 120.018 428.8 119.485 435.2 118.418 441.6 117.885 448 117.885 454.4 117.351 460.8 117.351 467.2 117.351 473.6 117.351 480 117.351 486.4 117.351 492.8 117.351 499.2 117.885 505.6 117.885 512 118.418 518.4 118.418 524.8 118.951 531.2 118.951 537.6 119.485 544 119.485 550.4 119.485 556.8 119.485 563.2 119.485 569.6 119.485 576 119.485 582.4 119.485 588.8 119.485 595.2 119.485 601.6 119.485 608 118.951 614.4 118.951 620.8 118.951 627.2 118.951 633.6 118.951 640 118.951"/>
        <polyline id="Shape-Copy" stroke="#18FF92" points="0 439 6.4 439 12.8 439 19.2 438.467 25.6 438.467 32 437.933 38.4 437.4 44.8 436.867 51.2 436.333 57.6 435.8 64 435.267 70.4 434.2 76.8 433.133 83.2 432.6 89.6 431.533 96 429.933 102.4 428.867 108.8 427.8 115.2 426.2 121.6 424.6 128 423.533 134.4 421.933 140.8 420.333 147.2 418.2 153.6 416.6 160 414.467 166.4 412.867 172.8 410.733 179.2 408.6 185.6 406.467 192 404.333 198.4 401.667 204.8 399.533 211.2 396.867 217.6 394.2 224 392.067 230.4 389.4 236.8 386.2 243.2 383.533 249.6 380.867 256 377.667 262.4 375 268.8 371.8 275.2 368.6 281.6 365.4 288 362.2 294.4 359 300.8 355.8 307.2 352.067 313.6 348.867 320 345.133 326.4 341.933 332.8 338.2 339.2 334.467 345.6 330.733 352 327 358.4 322.733 364.8 319 371.2 315.267 377.6 311 384 307.267 390.4 303 396.8 298.733 403.2 294.467 409.6 290.2 416 285.933 422.4 281.667 428.8 277.4 435.2 273.133 441.6 268.867 448 264.067 454.4 259.8 460.8 255 467.2 250.733 473.6 245.933 480 241.667 486.4 236.867 492.8 232.067 499.2 227.267 505.6 222.467 512 217.667 518.4 212.867 524.8 208.067 531.2 203.267 537.6 198.467 544 193.667 550.4 188.867 556.8 184.067 563.2 178.733 569.6 173.933 576 169.133 582.4 164.333 588.8 159 595.2 154.2 601.6 148.867 608 144.067 614.4 139.267 620.8 133.933 627.2 129.133 633.6 123.8 640 119"/>
        <polyline id="Shape-Copy-4" stroke="#18FF92" points="0 439 6.4 439 12.8 439 19.2 438.467 25.6 438.467 32 438.467 38.4 437.933 44.8 437.4 51.2 436.867 57.6 436.333 64 435.8 70.4 435.267 76.8 434.2 83.2 433.667 89.6 432.6 96 432.067 102.4 431 108.8 429.933 115.2 428.867 121.6 427.267 128 426.2 134.4 425.133 140.8 423.533 147.2 421.933 153.6 420.333 160 419.267 166.4 417.133 172.8 415.533 179.2 413.933 185.6 412.333 192 410.2 198.4 408.067 204.8 406.467 211.2 404.333 217.6 402.2 224 400.067 230.4 397.4 236.8 395.267 243.2 392.6 249.6 390.467 256 387.8 262.4 385.133 268.8 382.467 275.2 379.8 281.6 377.133 288 374.467 294.4 371.267 300.8 368.067 307.2 365.4 313.6 362.2 320 359 326.4 355.8 332.8 352.6 339.2 348.867 345.6 345.667 352 341.933 358.4 338.733 364.8 335 371.2 331.267 377.6 327.533 384 323.8 390.4 320.067 396.8 315.8 403.2 312.067 409.6 307.8 416 304.067 422.4 299.8 428.8 295.533 435.2 291.267 441.6 286.467 448 282.2 454.4 277.933 460.8 273.133 467.2 268.333 473.6 263.533 480 259.267 486.4 253.933 492.8 249.133 499.2 244.333 505.6 239.533 512 234.2 518.4 228.867 524.8 224.067 531.2 218.733 537.6 213.4 544 208.067 550.4 202.2 556.8 196.867 563.2 191 569.6 185.667 576 179.8 582.4 173.933 588.8 168.067 595.2 162.2 601.6 156.333 608 150.467 614.4 144.067 620.8 137.667 627.2 131.8 633.6 125.4 640 119"/>
        <polyline id="Shape-Copy-7" stroke="#18FF92" points="0 439 6.4 439 12.8 439 19.2 439 25.6 439 32 439 38.4 439 44.8 439 51.2 439 57.6 439 64 438.467 70.4 438.467 76.8 438.467 83.2 438.467 89.6 437.933 96 437.933 102.4 437.933 108.8 437.4 115.2 437.4 121.6 436.867 128 436.333 134.4 435.8 140.8 435.8 147.2 435.267 153.6 434.733 160 434.2 166.4 433.133 172.8 432.6 179.2 432.067 185.6 431 192 430.467 198.4 429.4 204.8 428.333 211.2 427.267 217.6 426.2 224 425.133 230.4 424.067 236.8 423 243.2 421.4 249.6 419.8 256 418.733 262.4 417.133 268.8 415.533 275.2 413.4 281.6 411.8 288 409.667 294.4 408.067 300.8 405.933 307.2 403.8 313.6 401.133 320 399 326.4 396.333 332.8 394.2 339.2 391.533 345.6 388.867 352 385.667 358.4 383 364.8 379.8 371.2 376.6 377.6 373.4 384 369.667 390.4 366.467 396.8 362.733 403.2 359 409.6 355.267 416 351 422.4 347.267 428.8 343 435.2 338.2 441.6 333.933 448 329.133 454.4 324.333 460.8 319.533 467.2 314.733 473.6 309.4 480 304.067 486.4 298.733 492.8 292.867 499.2 287 505.6 281.133 512 275.267 518.4 268.867 524.8 262.467 531.2 256.067 537.6 249.133 544 242.733 550.4 235.267 556.8 228.333 563.2 220.867 569.6 213.4 576 205.933 582.4 197.933 588.8 189.933 595.2 181.4 601.6 173.4 608 164.867 614.4 155.8 620.8 146.733 627.2 137.667 633.6 128.6 640 119"/>
        <polyline id="Shape-Copy-10" stroke="#18FF92" points="0 439 6.4 439 12.8 439 19.2 439 25.6 439 32 439 38.4 439 44.8 439 51.2 439 57.6 439 64 439 70.4 439 76.8 439 83.2 439 89.6 439 96 439 102.4 439 108.8 438.467 115.2 438.467 121.6 438.467 128 438.467 134.4 438.467 140.8 438.467 147.2 437.933 153.6 437.933 160 437.933 166.4 437.4 172.8 437.4 179.2 436.867 185.6 436.867 192 436.333 198.4 435.8 204.8 435.8 211.2 435.267 217.6 434.733 224 434.2 230.4 433.667 236.8 433.133 243.2 432.067 249.6 431.533 256 431 262.4 429.933 268.8 428.867 275.2 427.8 281.6 427.267 288 425.667 294.4 424.6 300.8 423.533 307.2 421.933 313.6 420.333 320 419.267 326.4 417.133 332.8 415.533 339.2 413.933 345.6 411.8 352 409.667 358.4 407.533 364.8 405.4 371.2 402.733 377.6 400.067 384 397.4 390.4 394.733 396.8 391.533 403.2 388.333 409.6 385.133 416 381.933 422.4 378.2 428.8 374.467 435.2 370.733 441.6 366.467 448 362.2 454.4 357.933 460.8 353.133 467.2 348.333 473.6 343 480 337.667 486.4 332.333 492.8 326.467 499.2 320.6 505.6 314.2 512 307.8 518.4 301.4 524.8 294.467 531.2 287 537.6 279.533 544 272.067 550.4 264.067 556.8 255.533 563.2 247 569.6 238.467 576 228.867 582.4 219.8 588.8 209.667 595.2 199.533 601.6 189.4 608 178.2 614.4 167 620.8 155.8 627.2 144.067 633.6 131.8 640 119"/>
        <polyline id="Shape-Copy-13" stroke="#18FF92" points="0 439 6.4 439 12.8 439 19.2 439 25.6 439 32 439 38.4 439 44.8 439 51.2 439 57.6 439 64 439 70.4 439 76.8 439 83.2 439 89.6 439 96 439 102.4 439 108.8 439 115.2 439 121.6 439 128 439 134.4 439 140.8 439 147.2 439 153.6 439 160 438.467 166.4 438.467 172.8 438.467 179.2 438.467 185.6 438.467 192 438.467 198.4 437.933 204.8 437.933 211.2 437.933 217.6 437.4 224 437.4 230.4 436.867 236.8 436.867 243.2 436.333 249.6 436.333 256 435.8 262.4 435.267 268.8 434.733 275.2 434.2 281.6 433.667 288 433.133 294.4 432.6 300.8 431.533 307.2 431 313.6 429.933 320 428.867 326.4 427.8 332.8 426.733 339.2 425.667 345.6 424.067 352 423 358.4 421.4 364.8 419.8 371.2 418.2 377.6 416.067 384 413.933 390.4 411.8 396.8 409.667 403.2 407 409.6 404.867 416 401.667 422.4 399 428.8 395.8 435.2 392.6 441.6 388.867 448 385.133 454.4 381.4 460.8 377.133 467.2 372.867 473.6 368.067 480 363.267 486.4 357.933 492.8 352.6 499.2 346.733 505.6 340.333 512 333.933 518.4 327.533 524.8 320.6 531.2 313.133 537.6 305.133 544 297.133 550.4 288.6 556.8 279.533 563.2 269.933 569.6 260.333 576 250.2 582.4 239.533 588.8 228.333 595.2 216.6 601.6 204.333 608 191.533 614.4 178.2 620.8 164.333 627.2 149.933 633.6 134.467 640 119"/>
        <polyline id="Shape-Copy-16" stroke="#18FF92" points="0 439 6.4 438.467 12.8 438.467 19.2 438.467 25.6 438.467 32 438.467 38.4 438.467 44.8 438.467 51.2 438.467 57.6 438.467 64 438.467 70.4 438.467 76.8 438.467 83.2 438.467 89.6 437.933 96 437.933 102.4 437.933 108.8 437.933 115.2 437.933 121.6 437.933 128 437.933 134.4 437.4 140.8 437.4 147.2 437.4 153.6 437.4 160 437.4 166.4 436.867 172.8 436.867 179.2 436.867 185.6 436.867 192 436.333 198.4 436.333 204.8 436.333 211.2 435.8 217.6 435.8 224 435.267 230.4 435.267 236.8 434.733 243.2 434.733 249.6 434.2 256 434.2 262.4 433.667 268.8 433.133 275.2 432.6 281.6 432.6 288 432.067 294.4 431.533 300.8 431 307.2 430.467 313.6 429.933 320 428.867 326.4 428.333 332.8 427.267 339.2 426.733 345.6 425.667 352 424.6 358.4 424.067 364.8 423 371.2 421.4 377.6 420.333 384 419.267 390.4 417.667 396.8 416.067 403.2 414.467 409.6 412.867 416 410.733 422.4 408.6 428.8 406.467 435.2 404.333 441.6 401.667 448 399 454.4 396.333 460.8 393.133 467.2 389.933 473.6 386.2 480 382.467 486.4 378.2 492.8 373.933 499.2 369.133 505.6 364.333 512 359 518.4 353.133 524.8 347.267 531.2 340.333 537.6 333.4 544 325.933 550.4 317.933 556.8 308.867 563.2 299.8 569.6 289.667 576 279 582.4 267.267 588.8 255 595.2 242.2 601.6 227.8 608 212.867 614.4 196.333 620.8 179.267 627.2 160.6 633.6 140.333 640 119"/>
        <polyline id="Shape-Copy-19" stroke="#18FF92" points="0 439 6.4 439 12.8 439 19.2 439 25.6 439 32 438.467 38.4 438.467 44.8 438.467 51.2 437.933 57.6 437.933 64 437.4 70.4 436.867 76.8 436.867 83.2 436.333 89.6 435.8 96 435.267 102.4 434.733 108.8 434.2 115.2 433.667 121.6 433.133 128 432.6 134.4 432.067 140.8 431 147.2 430.467 153.6 429.4 160 428.867 166.4 427.8 172.8 427.267 179.2 426.2 185.6 425.133 192 424.067 198.4 423 204.8 421.933 211.2 420.867 217.6 419.8 224 418.733 230.4 417.667 236.8 416.067 243.2 415 249.6 413.4 256 412.333 262.4 410.733 268.8 409.667 275.2 408.067 281.6 406.467 288 404.867 294.4 403.267 300.8 401.667 307.2 399.533 313.6 397.933 320 396.333 326.4 394.2 332.8 392.067 339.2 390.467 345.6 388.333 352 386.2 358.4 384.067 364.8 381.933 371.2 379.8 377.6 377.133 384 375 390.4 372.333 396.8 370.2 403.2 367.533 409.6 364.867 416 362.2 422.4 359.533 428.8 356.333 435.2 353.667 441.6 350.467 448 347.267 454.4 344.6 460.8 340.867 467.2 337.667 473.6 334.467 480 330.733 486.4 327 492.8 323.267 499.2 319 505.6 315.267 512 311 518.4 306.733 524.8 301.933 531.2 297.667 537.6 292.867 544 287.533 550.4 282.2 556.8 276.867 563.2 271 569.6 265.133 576 258.733 582.4 251.8 588.8 244.333 595.2 236.867 601.6 228.333 608 218.733 614.4 208.6 620.8 196.867 627.2 182.467 633.6 164.333 640 119"/>
        <polyline id="Shape-Copy-22" stroke="#18FF92" points="0 439 6.4 439 12.8 439 19.2 439.533 25.6 440.067 32 440.067 38.4 440.6 44.8 441.133 51.2 442.2 57.6 442.733 64 443.8 70.4 444.333 76.8 445.4 83.2 446.467 89.6 447.533 96 448.6 102.4 449.133 108.8 450.733 115.2 451.8 121.6 452.867 128 453.933 134.4 455 140.8 456.067 147.2 457.133 153.6 458.2 160 459.267 166.4 460.867 172.8 461.933 179.2 462.467 185.6 463.533 192 464.6 198.4 465.667 204.8 466.2 211.2 467.267 217.6 467.8 224 468.867 230.4 469.4 236.8 469.933 243.2 469.933 249.6 470.467 256 471 262.4 471 268.8 471 275.2 471 281.6 471 288 470.467 294.4 469.933 300.8 469.4 307.2 468.867 313.6 467.8 320 467.267 326.4 466.2 332.8 464.6 339.2 463 345.6 461.4 352 459.8 358.4 458.2 364.8 456.067 371.2 453.4 377.6 450.733 384 448.067 390.4 445.4 396.8 442.2 403.2 439 409.6 435.267 416 431.533 422.4 427.8 428.8 423.533 435.2 418.733 441.6 414.467 448 409.133 454.4 404.333 460.8 398.467 467.2 392.6 473.6 386.733 480 380.333 486.4 373.933 492.8 367 499.2 360.067 505.6 352.6 512 344.6 518.4 336.6 524.8 328.6 531.2 319.533 537.6 311 544 301.4 550.4 291.8 556.8 281.667 563.2 271.533 569.6 260.867 576 249.667 582.4 238.467 588.8 226.733 595.2 214.467 601.6 202.2 608 189.4 614.4 176.067 620.8 162.2 627.2 148.333 633.6 133.933 640 119"/>
        <polyline id="Shape-Copy-25" stroke="#18FF92" points="0 439 6.4 439 12.8 439 19.2 439 25.6 439 32 439 38.4 438.467 44.8 438.467 51.2 438.467 57.6 438.467 64 438.467 70.4 438.467 76.8 438.467 83.2 438.467 89.6 438.467 96 438.467 102.4 438.467 108.8 439 115.2 439 121.6 439.533 128 439.533 134.4 440.067 140.8 440.067 147.2 440.6 153.6 440.6 160 440.6 166.4 440.6 172.8 440.6 179.2 440.6 185.6 440.6 192 440.067 198.4 440.067 204.8 439.533 211.2 438.467 217.6 437.933 224 437.4 230.4 436.333 236.8 435.8 243.2 435.267 249.6 434.2 256 434.2 262.4 433.667 268.8 433.667 275.2 434.2 281.6 434.733 288 435.267 294.4 436.867 300.8 437.933 307.2 440.067 313.6 441.667 320 443.8 326.4 445.933 332.8 448.067 339.2 450.2 345.6 451.8 352 453.4 358.4 453.933 364.8 453.933 371.2 452.867 377.6 451.267 384 449.133 390.4 445.4 396.8 441.667 403.2 436.333 409.6 431 416 424.6 422.4 418.733 428.8 412.867 435.2 407 441.6 402.733 448 399 454.4 396.867 460.8 396.867 467.2 399 473.6 403.8 480 410.733 486.4 420.333 492.8 432.067 499.2 446.467 505.6 461.933 512 479 518.4 496.6 524.8 513.133 531.2 529.133 537.6 542.467 544 552.067 550.4 557.4 556.8 557.933 563.2 551.533 569.6 538.733 576 519 582.4 491.8 588.8 458.2 595.2 418.2 601.6 373.933 608 325.933 614.4 276.867 620.8 228.867 627.2 184.6 633.6 146.733 640 119"/>
      </g>
    </g>
  </g>
</svg>
