<svg xmlns="http://www.w3.org/2000/svg" viewBox="0 0 640 592">
  <g id="Page-1" fill="none" fill-rule="evenodd">
    <g id="easings-anim">
      <g id="grid" stroke="#51516A" transform="translate(0 137)">
        <rect id="Rectangle-2" width="31" height="319" x=".5" y=".5"/>
        <rect id="Rectangle-2-Copy" width="31" height="319" x="32.5" y=".5"/>
        <rect id="Rectangle-2-Copy-2" width="31" height="319" x="64.5" y=".5"/>
        <rect id="Rectangle-2-Copy-3" width="31" height="319" x="96.5" y=".5"/>
        <rect id="Rectangle-2-Copy-7" width="31" height="319" x="128.5" y=".5"/>
        <rect id="Rectangle-2-Copy-6" width="31" height="319" x="160.5" y=".5"/>
        <rect id="Rectangle-2-Copy-5" width="31" height="319" x="192.5" y=".5"/>
        <rect id="Rectangle-2-Copy-4" width="31" height="319" x="224.5" y=".5"/>
        <rect id="Rectangle-2-Copy-11" width="31" height="319" x="256.5" y=".5"/>
        <rect id="Rectangle-2-Copy-10" width="31" height="319" x="288.5" y=".5"/>
        <rect id="Rectangle-2-Copy-9" width="31" height="319" x="320.5" y=".5"/>
        <rect id="Rectangle-2-Copy-8" width="31" height="319" x="352.5" y=".5"/>
        <rect id="Rectangle-2-Copy-15" width="31" height="319" x="384.5" y=".5"/>
        <rect id="Rectangle-2-Copy-14" width="31" height="319" x="416.5" y=".5"/>
        <rect id="Rectangle-2-Copy-13" width="31" height="319" x="448.5" y=".5"/>
        <rect id="Rectangle-2-Copy-12" width="31" height="319" x="480.5" y=".5"/>
        <rect id="Rectangle-2-Copy-19" width="31" height="319" x="512.5" y=".5"/>
        <rect id="Rectangle-2-Copy-18" width="31" height="319" x="544.5" y=".5"/>
        <rect id="Rectangle-2-Copy-17" width="31" height="319" x="576.5" y=".5"/>
        <rect id="Rectangle-2-Copy-16" width="31" height="319" x="608.5" y=".5"/>
        <rect id="Rectangle" width="639" height="31" x=".5" y="31.5"/>
        <rect id="Rectangle-Copy" width="639" height="31" x=".5" y="63.5"/>
        <rect id="Rectangle-Copy-2" width="639" height="31" x=".5" y="95.5"/>
        <rect id="Rectangle-Copy-3" width="639" height="31" x=".5" y="127.5"/>
        <rect id="Rectangle-Copy-4" width="639" height="31" x=".5" y="159.5"/>
        <rect id="Rectangle-Copy-9" width="639" height="31" x=".5" y="191.5"/>
        <rect id="Rectangle-Copy-8" width="639" height="31" x=".5" y="223.5"/>
        <rect id="Rectangle-Copy-7" width="639" height="31" x=".5" y="255.5"/>
        <rect id="Rectangle-Copy-6" width="639" height="31" x=".5" y="287.5"/>
      </g>
      <g id="in-out" fill-rule="nonzero" stroke="#5A87FF" stroke-width="2" transform="translate(0 99)">
        <polyline id="Shape-Copy-3" points="0 357 6.4 357 12.8 356.467 19.2 356.467 25.6 355.933 32 354.867 38.4 354.333 44.8 353.267 51.2 352.2 57.6 350.6 64 349 70.4 347.4 76.8 345.8 83.2 343.667 89.6 341.533 96 339.4 102.4 337.267 108.8 334.6 115.2 331.933 121.6 329.267 128 326.6 134.4 323.4 140.8 320.2 147.2 317 153.6 313.8 160 310.067 166.4 306.333 172.8 302.6 179.2 298.867 185.6 295.133 192 290.867 198.4 287.133 204.8 282.867 211.2 278.6 217.6 274.333 224 269.533 230.4 265.267 236.8 260.467 243.2 255.667 249.6 251.4 256 246.6 262.4 241.8 268.8 237 275.2 231.667 281.6 226.867 288 222.067 294.4 217.267 300.8 211.933 307.2 207.133 313.6 201.8 320 197 326.4 192.2 332.8 186.867 339.2 182.067 345.6 176.733 352 171.933 358.4 167.133 364.8 162.333 371.2 157 377.6 152.2 384 147.4 390.4 142.6 396.8 138.333 403.2 133.533 409.6 128.733 416 124.467 422.4 119.667 428.8 115.4 435.2 111.133 441.6 106.867 448 103.133 454.4 98.867 460.8 95.133 467.2 91.4 473.6 87.667 480 83.933 486.4 80.2 492.8 77 499.2 73.8 505.6 70.6 512 67.4 518.4 64.733 524.8 62.067 531.2 59.4 537.6 56.733 544 54.6 550.4 52.467 556.8 50.333 563.2 48.2 569.6 46.6 576 45 582.4 43.4 588.8 41.8 595.2 40.733 601.6 39.667 608 39.133 614.4 38.067 620.8 37.533 627.2 37.533 633.6 37 640 37"/>
        <polyline id="Shape-Copy-6" points="0 357 6.4 357 12.8 357 19.2 356.467 25.6 355.933 32 355.4 38.4 354.867 44.8 353.8 51.2 352.733 57.6 351.667 64 350.6 70.4 349 76.8 347.933 83.2 346.333 89.6 344.2 96 342.6 102.4 340.467 108.8 338.333 115.2 336.2 121.6 334.067 128 331.4 134.4 328.733 140.8 326.067 147.2 323.4 153.6 320.2 160 317 166.4 313.8 172.8 310.6 179.2 306.867 185.6 303.133 192 299.4 198.4 295.667 204.8 291.4 211.2 287.133 217.6 282.867 224 278.6 230.4 273.8 236.8 269.533 243.2 264.733 249.6 259.4 256 254.6 262.4 249.267 268.8 243.933 275.2 238.6 281.6 233.267 288 227.4 294.4 221.533 300.8 215.667 307.2 209.8 313.6 203.4 320 197 326.4 190.6 332.8 184.2 339.2 178.333 345.6 172.467 352 166.6 358.4 160.733 364.8 155.4 371.2 150.067 377.6 144.733 384 139.4 390.4 134.6 396.8 129.267 403.2 124.467 409.6 120.2 416 115.4 422.4 111.133 428.8 106.867 435.2 102.6 441.6 98.333 448 94.6 454.4 90.867 460.8 87.133 467.2 83.4 473.6 80.2 480 77 486.4 73.8 492.8 70.6 499.2 67.933 505.6 65.267 512 62.6 518.4 59.933 524.8 57.8 531.2 55.667 537.6 53.533 544 51.4 550.4 49.8 556.8 47.667 563.2 46.067 569.6 45 576 43.4 582.4 42.333 588.8 41.267 595.2 40.2 601.6 39.133 608 38.6 614.4 38.067 620.8 37.533 627.2 37 633.6 37 640 37"/>
        <polyline id="Shape-Copy-9" points="0 357 6.4 357 12.8 357 19.2 357 25.6 357 32 357 38.4 356.467 44.8 356.467 51.2 356.467 57.6 355.933 64 355.933 70.4 355.4 76.8 354.867 83.2 354.333 89.6 353.267 96 352.733 102.4 351.667 108.8 350.6 115.2 349.533 121.6 348.467 128 346.867 134.4 345.267 140.8 343.133 147.2 341.533 153.6 339.4 160 337.267 166.4 334.6 172.8 331.933 179.2 328.733 185.6 325.533 192 322.333 198.4 319.133 204.8 314.867 211.2 311.133 217.6 306.867 224 302.067 230.4 297.267 236.8 291.933 243.2 286.6 249.6 281.267 256 274.867 262.4 269 268.8 262.067 275.2 255.133 281.6 248.2 288 240.2 294.4 232.2 300.8 224.2 307.2 215.667 313.6 206.6 320 197 326.4 187.4 332.8 178.333 339.2 169.8 345.6 161.8 352 153.8 358.4 145.8 364.8 138.867 371.2 131.933 377.6 125 384 119.133 390.4 112.733 396.8 107.4 403.2 102.067 409.6 96.733 416 91.933 422.4 87.133 428.8 82.867 435.2 79.133 441.6 74.867 448 71.667 454.4 68.467 460.8 65.267 467.2 62.067 473.6 59.4 480 57.267 486.4 54.6 492.8 52.467 499.2 50.867 505.6 48.733 512 47.133 518.4 45.533 524.8 44.467 531.2 43.4 537.6 42.333 544 41.267 550.4 40.733 556.8 39.667 563.2 39.133 569.6 38.6 576 38.067 582.4 38.067 588.8 37.533 595.2 37.533 601.6 37.533 608 37 614.4 37 620.8 37 627.2 37 633.6 37 640 37"/>
        <polyline id="Shape-Copy-12" points="0 357 6.4 357 12.8 357 19.2 357 25.6 357 32 357 38.4 357 44.8 357 51.2 357 57.6 357 64 357 70.4 356.467 76.8 356.467 83.2 356.467 89.6 355.933 96 355.933 102.4 355.4 108.8 354.867 115.2 354.333 121.6 353.8 128 352.733 134.4 352.2 140.8 351.133 147.2 350.067 153.6 348.467 160 346.867 166.4 345.267 172.8 343.133 179.2 341 185.6 338.867 192 336.2 198.4 333.533 204.8 330.333 211.2 326.6 217.6 322.867 224 318.6 230.4 313.8 236.8 309 243.2 303.667 249.6 297.8 256 291.4 262.4 284.467 268.8 277.533 275.2 269.533 281.6 261 288 251.933 294.4 242.333 300.8 232.2 307.2 221 313.6 209.267 320 197 326.4 184.733 332.8 173 339.2 161.8 345.6 151.667 352 142.067 358.4 133 364.8 124.467 371.2 116.467 377.6 109.533 384 102.6 390.4 96.2 396.8 90.333 403.2 85 409.6 80.2 416 75.4 422.4 71.133 428.8 67.4 435.2 63.667 441.6 60.467 448 57.8 454.4 55.133 460.8 53 467.2 50.867 473.6 48.733 480 47.133 486.4 45.533 492.8 43.933 499.2 42.867 505.6 41.8 512 41.267 518.4 40.2 524.8 39.667 531.2 39.133 537.6 38.6 544 38.067 550.4 38.067 556.8 37.533 563.2 37.533 569.6 37.533 576 37 582.4 37 588.8 37 595.2 37 601.6 37 608 37 614.4 37 620.8 37 627.2 37 633.6 37 640 37"/>
        <polyline id="Shape-Copy-15" points="0 357 6.4 357 12.8 357 19.2 357 25.6 357 32 357 38.4 357 44.8 357 51.2 357 57.6 357 64 357 70.4 357 76.8 357 83.2 357 89.6 356.467 96 356.467 102.4 356.467 108.8 356.467 115.2 355.933 121.6 355.933 128 355.4 134.4 354.867 140.8 354.333 147.2 353.8 153.6 352.733 160 352.2 166.4 351.133 172.8 349.533 179.2 347.933 185.6 346.333 192 344.733 198.4 342.6 204.8 339.933 211.2 336.733 217.6 333.533 224 330.333 230.4 326.067 236.8 321.267 243.2 316.467 249.6 310.6 256 304.733 262.4 297.8 268.8 290.333 275.2 281.8 281.6 272.733 288 262.6 294.4 251.4 300.8 239.667 307.2 226.333 313.6 212.467 320 197 326.4 181.533 332.8 167.667 339.2 154.333 345.6 142.6 352 131.4 358.4 121.267 364.8 112.2 371.2 103.667 377.6 96.2 384 89.267 390.4 83.4 396.8 77.533 403.2 72.733 409.6 67.933 416 63.667 422.4 60.467 428.8 57.267 435.2 54.067 441.6 51.4 448 49.267 454.4 47.667 460.8 46.067 467.2 44.467 473.6 42.867 480 41.8 486.4 41.267 492.8 40.2 499.2 39.667 505.6 39.133 512 38.6 518.4 38.067 524.8 38.067 531.2 37.533 537.6 37.533 544 37.533 550.4 37.533 556.8 37 563.2 37 569.6 37 576 37 582.4 37 588.8 37 595.2 37 601.6 37 608 37 614.4 37 620.8 37 627.2 37 633.6 37 640 37"/>
        <polyline id="Shape-Copy-18" points="0 357 6.4 357 12.8 357 19.2 357 25.6 356.467 32 356.467 38.4 356.467 44.8 356.467 51.2 356.467 57.6 356.467 64 356.467 70.4 356.467 76.8 355.933 83.2 355.933 89.6 355.933 96 355.933 102.4 355.4 108.8 355.4 115.2 354.867 121.6 354.867 128 354.333 134.4 354.333 140.8 353.8 147.2 353.267 153.6 352.733 160 352.2 166.4 351.133 172.8 350.6 179.2 349.533 185.6 348.467 192 346.867 198.4 345.267 204.8 343.667 211.2 342.067 217.6 339.4 224 337.267 230.4 334.067 236.8 330.867 243.2 326.6 249.6 322.333 256 317 262.4 311.133 268.8 304.2 275.2 296.2 281.6 287.133 288 277 294.4 265.267 300.8 251.4 307.2 235.933 313.6 217.8 320 197 326.4 176.2 332.8 158.067 339.2 142.6 345.6 128.733 352 117 358.4 106.867 364.8 97.8 371.2 89.8 377.6 82.867 384 77 390.4 71.667 396.8 67.4 403.2 63.133 409.6 59.933 416 57.267 422.4 54.6 428.8 51.933 435.2 50.333 441.6 48.733 448 47.133 454.4 45.533 460.8 44.467 467.2 43.4 473.6 42.867 480 41.8 486.4 41.267 492.8 40.733 499.2 40.2 505.6 39.667 512 39.667 518.4 39.133 524.8 39.133 531.2 38.6 537.6 38.6 544 38.067 550.4 38.067 556.8 38.067 563.2 38.067 569.6 37.533 576 37.533 582.4 37.533 588.8 37.533 595.2 37.533 601.6 37.533 608 37.533 614.4 37.533 620.8 37 627.2 37 633.6 37 640 37"/>
        <polyline id="Shape-Copy-21" points="0 357 6.4 357 12.8 357 19.2 356.467 25.6 356.467 32 355.933 38.4 355.933 44.8 355.4 51.2 354.867 57.6 354.333 64 353.8 70.4 353.267 76.8 352.2 83.2 351.667 89.6 350.6 96 349.533 102.4 348.467 108.8 347.4 115.2 346.333 121.6 344.733 128 343.667 134.4 342.067 140.8 340.467 147.2 338.867 153.6 337.267 160 335.667 166.4 333.533 172.8 331.4 179.2 329.8 185.6 327.133 192 325 198.4 322.333 204.8 320.2 211.2 317 217.6 314.333 224 311.133 230.4 307.933 236.8 304.733 243.2 301 249.6 297.267 256 293 262.4 288.733 268.8 283.933 275.2 278.6 281.6 272.733 288 266.867 294.4 259.933 300.8 251.4 307.2 241.8 313.6 229 320 197 326.4 165 332.8 152.2 339.2 142.6 345.6 134.067 352 127.133 358.4 121.267 364.8 115.4 371.2 110.067 377.6 105.267 384 101 390.4 96.733 396.8 93 403.2 89.267 409.6 86.067 416 82.867 422.4 79.667 428.8 77 435.2 73.8 441.6 71.667 448 69 454.4 66.867 460.8 64.2 467.2 62.6 473.6 60.467 480 58.333 486.4 56.733 492.8 55.133 499.2 53.533 505.6 51.933 512 50.333 518.4 49.267 524.8 47.667 531.2 46.6 537.6 45.533 544 44.467 550.4 43.4 556.8 42.333 563.2 41.8 569.6 40.733 576 40.2 582.4 39.667 588.8 39.133 595.2 38.6 601.6 38.067 608 38.067 614.4 37.533 620.8 37.533 627.2 37 633.6 37 640 37"/>
        <polyline id="Shape-Copy-24" points="0 357 6.4 357 12.8 357.533 19.2 358.6 25.6 359.133 32 360.733 38.4 361.8 44.8 363.4 51.2 365.533 57.6 367.133 64 369.267 70.4 370.867 76.8 373 83.2 375.133 89.6 376.733 96 378.867 102.4 380.467 108.8 382.6 115.2 384.2 121.6 385.267 128 386.867 134.4 387.4 140.8 388.467 147.2 389 153.6 389 160 389 166.4 388.467 172.8 387.4 179.2 386.333 185.6 384.2 192 382.067 198.4 379.4 204.8 376.2 211.2 372.467 217.6 368.2 224 363.4 230.4 357.533 236.8 351.133 243.2 344.2 249.6 336.733 256 328.2 262.4 319.133 268.8 309 275.2 298.333 281.6 286.6 288 273.8 294.4 260.467 300.8 246.067 307.2 230.6 313.6 214.6 320 197 326.4 179.4 332.8 163.4 339.2 147.933 345.6 133.533 352 120.2 358.4 107.4 364.8 95.667 371.2 85 377.6 74.867 384 65.8 390.4 57.267 396.8 49.8 403.2 42.867 409.6 36.467 416 30.6 422.4 25.8 428.8 21.533 435.2 17.8 441.6 14.6 448 11.933 454.4 9.8 460.8 7.667 467.2 6.6 473.6 5.533 480 5 486.4 5 492.8 5 499.2 5.533 505.6 6.6 512 7.133 518.4 8.733 524.8 9.8 531.2 11.4 537.6 13.533 544 15.133 550.4 17.267 556.8 18.867 563.2 21 569.6 23.133 576 24.733 582.4 26.867 588.8 28.467 595.2 30.6 601.6 32.2 608 33.267 614.4 34.867 620.8 35.4 627.2 36.467 633.6 37 640 37"/>
        <polyline id="Shape-Copy-27" points="0 357.635 6.4 357.635 12.8 357.635 19.2 357.635 25.6 357.635 32 357.101 38.4 357.101 44.8 357.101 51.2 357.101 57.6 357.635 64 357.635 70.4 357.635 76.8 358.169 83.2 358.169 89.6 358.703 96 358.703 102.4 359.236 108.8 359.236 115.2 359.236 121.6 359.236 128 358.703 134.4 358.169 140.8 357.635 147.2 356.568 153.6 354.966 160 353.899 166.4 352.297 172.8 351.23 179.2 350.162 185.6 349.628 192 350.162 198.4 351.23 204.8 353.365 211.2 357.101 217.6 361.905 224 367.777 230.4 374.182 236.8 381.122 243.2 387.527 249.6 392.331 256 395 262.4 395 268.8 390.196 275.2 380.588 281.6 365.108 288 343.757 294.4 317.068 300.8 287.176 307.2 254.615 313.6 223.655 320 197.5 326.4 171.345 332.8 140.385 339.2 107.824 345.6 77.932 352 51.243 358.4 29.892 364.8 14.412 371.2 4.804 377.6 0 384 0 390.4 2.669 396.8 7.473 403.2 13.878 409.6 20.818 416 27.223 422.4 33.095 428.8 37.899 435.2 41.635 441.6 43.77 448 44.838 454.4 45.372 460.8 44.838 467.2 43.77 473.6 42.703 480 41.101 486.4 40.034 492.8 38.432 499.2 37.365 505.6 36.831 512 36.297 518.4 35.764 524.8 35.764 531.2 35.764 537.6 35.764 544 36.297 550.4 36.297 556.8 36.831 563.2 36.831 569.6 37.365 576 37.365 582.4 37.365 588.8 37.899 595.2 37.899 601.6 37.899 608 37.899 614.4 37.365 620.8 37.365 627.2 37.365 633.6 37.365 640 37.365"/>
      </g>
      <g id="out" fill-rule="nonzero" stroke="#FF1461" stroke-width="2" transform="translate(0 17)">
        <polyline id="Shape-Copy-2" points="0 439 6.4 434.2 12.8 428.867 19.2 424.067 25.6 418.733 32 413.933 38.4 409.133 44.8 403.8 51.2 399 57.6 393.667 64 388.867 70.4 384.067 76.8 379.267 83.2 373.933 89.6 369.133 96 364.333 102.4 359.533 108.8 354.733 115.2 349.933 121.6 345.133 128 340.333 134.4 335.533 140.8 330.733 147.2 325.933 153.6 321.133 160 316.333 166.4 312.067 172.8 307.267 179.2 303 185.6 298.2 192 293.933 198.4 289.133 204.8 284.867 211.2 280.6 217.6 276.333 224 272.067 230.4 267.8 236.8 263.533 243.2 259.267 249.6 255 256 250.733 262.4 247 268.8 242.733 275.2 239 281.6 235.267 288 231 294.4 227.267 300.8 223.533 307.2 219.8 313.6 216.067 320 212.867 326.4 209.133 332.8 205.933 339.2 202.2 345.6 199 352 195.8 358.4 192.6 364.8 189.4 371.2 186.2 377.6 183 384 180.333 390.4 177.133 396.8 174.467 403.2 171.8 409.6 168.6 416 165.933 422.4 163.8 428.8 161.133 435.2 158.467 441.6 156.333 448 153.667 454.4 151.533 460.8 149.4 467.2 147.267 473.6 145.133 480 143.533 486.4 141.4 492.8 139.8 499.2 137.667 505.6 136.067 512 134.467 518.4 133.4 524.8 131.8 531.2 130.2 537.6 129.133 544 128.067 550.4 126.467 556.8 125.4 563.2 124.867 569.6 123.8 576 122.733 582.4 122.2 588.8 121.667 595.2 121.133 601.6 120.6 608 120.067 614.4 119.533 620.8 119.533 627.2 119 633.6 119 640 119"/>
        <polyline id="Shape-Copy-5" points="0 439 6.4 432.6 12.8 426.2 19.2 420.333 25.6 413.933 32 408.067 38.4 401.667 44.8 395.8 51.2 389.933 57.6 384.067 64 378.2 70.4 372.333 76.8 367 83.2 361.133 89.6 355.8 96 349.933 102.4 344.6 108.8 339.267 115.2 333.933 121.6 329.133 128 323.8 134.4 318.467 140.8 313.667 147.2 308.867 153.6 304.067 160 299.267 166.4 294.467 172.8 289.667 179.2 284.867 185.6 280.067 192 275.8 198.4 271.533 204.8 266.733 211.2 262.467 217.6 258.2 224 254.467 230.4 250.2 236.8 245.933 243.2 242.2 249.6 237.933 256 234.2 262.4 230.467 268.8 226.733 275.2 223 281.6 219.267 288 216.067 294.4 212.333 300.8 209.133 307.2 205.4 313.6 202.2 320 199 326.4 195.8 332.8 192.6 339.2 189.933 345.6 186.733 352 183.533 358.4 180.867 364.8 178.2 371.2 175.533 377.6 172.867 384 170.2 390.4 167.533 396.8 165.4 403.2 162.733 409.6 160.6 416 157.933 422.4 155.8 428.8 153.667 435.2 151.533 441.6 149.933 448 147.8 454.4 145.667 460.8 144.067 467.2 142.467 473.6 140.867 480 139.267 486.4 137.667 492.8 136.067 499.2 134.467 505.6 132.867 512 131.8 518.4 130.733 524.8 129.133 531.2 128.067 537.6 127 544 126.467 550.4 125.4 556.8 124.333 563.2 123.8 569.6 122.733 576 122.2 582.4 121.667 588.8 121.133 595.2 120.6 601.6 120.067 608 120.067 614.4 119.533 620.8 119.533 627.2 119 633.6 119 640 119"/>
        <polyline id="Shape-Copy-8" points="0 439 6.4 429.4 12.8 420.333 19.2 411.267 25.6 402.2 32 393.133 38.4 384.6 44.8 376.6 51.2 368.067 57.6 360.067 64 352.067 70.4 344.6 76.8 337.133 83.2 329.667 89.6 322.733 96 315.267 102.4 308.867 108.8 301.933 115.2 295.533 121.6 289.133 128 282.733 134.4 276.867 140.8 271 147.2 265.133 153.6 259.267 160 253.933 166.4 248.6 172.8 243.267 179.2 238.467 185.6 233.667 192 228.867 198.4 224.067 204.8 219.8 211.2 215 217.6 210.733 224 207 230.4 202.733 236.8 199 243.2 195.267 249.6 191.533 256 188.333 262.4 184.6 268.8 181.4 275.2 178.2 281.6 175 288 172.333 294.4 169.133 300.8 166.467 307.2 163.8 313.6 161.667 320 159 326.4 156.867 332.8 154.2 339.2 152.067 345.6 149.933 352 148.333 358.4 146.2 364.8 144.6 371.2 142.467 377.6 140.867 384 139.267 390.4 138.2 396.8 136.6 403.2 135 409.6 133.933 416 132.867 422.4 131.8 428.8 130.733 435.2 129.667 441.6 128.6 448 127.533 454.4 127 460.8 125.933 467.2 125.4 473.6 124.867 480 123.8 486.4 123.267 492.8 122.733 499.2 122.2 505.6 122.2 512 121.667 518.4 121.133 524.8 120.6 531.2 120.6 537.6 120.067 544 120.067 550.4 120.067 556.8 119.533 563.2 119.533 569.6 119.533 576 119.533 582.4 119 588.8 119 595.2 119 601.6 119 608 119 614.4 119 620.8 119 627.2 119 633.6 119 640 119"/>
        <polyline id="Shape-Copy-11" points="0 439 6.4 426.2 12.8 413.933 19.2 402.2 25.6 391 32 379.8 38.4 368.6 44.8 358.467 51.2 348.333 57.6 338.2 64 329.133 70.4 319.533 76.8 311 83.2 302.467 89.6 293.933 96 285.933 102.4 278.467 108.8 271 115.2 263.533 121.6 256.6 128 250.2 134.4 243.8 140.8 237.4 147.2 231.533 153.6 225.667 160 220.333 166.4 215 172.8 209.667 179.2 204.867 185.6 200.067 192 195.8 198.4 191.533 204.8 187.267 211.2 183.533 217.6 179.8 224 176.067 230.4 172.867 236.8 169.667 243.2 166.467 249.6 163.267 256 160.6 262.4 157.933 268.8 155.267 275.2 152.6 281.6 150.467 288 148.333 294.4 146.2 300.8 144.067 307.2 142.467 313.6 140.867 320 139.267 326.4 137.667 332.8 136.067 339.2 134.467 345.6 133.4 352 132.333 358.4 130.733 364.8 130.2 371.2 129.133 377.6 128.067 384 127 390.4 126.467 396.8 125.933 403.2 124.867 409.6 124.333 416 123.8 422.4 123.267 428.8 122.733 435.2 122.2 441.6 122.2 448 121.667 454.4 121.133 460.8 121.133 467.2 120.6 473.6 120.6 480 120.067 486.4 120.067 492.8 120.067 499.2 119.533 505.6 119.533 512 119.533 518.4 119.533 524.8 119.533 531.2 119.533 537.6 119 544 119 550.4 119 556.8 119 563.2 119 569.6 119 576 119 582.4 119 588.8 119 595.2 119 601.6 119 608 119 614.4 119 620.8 119 627.2 119 633.6 119 640 119"/>
        <polyline id="Shape-Copy-14" points="0 439 6.4 423.533 12.8 408.067 19.2 393.667 25.6 379.8 32 366.467 38.4 353.667 44.8 341.4 51.2 329.667 57.6 318.467 64 307.8 70.4 297.667 76.8 288.067 83.2 278.467 89.6 269.4 96 260.867 102.4 252.867 108.8 244.867 115.2 237.4 121.6 230.467 128 224.067 134.4 217.667 140.8 211.267 147.2 205.4 153.6 200.067 160 194.733 166.4 189.933 172.8 185.133 179.2 180.867 185.6 176.6 192 172.867 198.4 169.133 204.8 165.4 211.2 162.2 217.6 159 224 156.333 230.4 153.133 236.8 151 243.2 148.333 249.6 146.2 256 144.067 262.4 141.933 268.8 139.8 275.2 138.2 281.6 136.6 288 135 294.4 133.933 300.8 132.333 307.2 131.267 313.6 130.2 320 129.133 326.4 128.067 332.8 127 339.2 126.467 345.6 125.4 352 124.867 358.4 124.333 364.8 123.8 371.2 123.267 377.6 122.733 384 122.2 390.4 121.667 396.8 121.667 403.2 121.133 409.6 121.133 416 120.6 422.4 120.6 428.8 120.067 435.2 120.067 441.6 120.067 448 119.533 454.4 119.533 460.8 119.533 467.2 119.533 473.6 119.533 480 119.533 486.4 119 492.8 119 499.2 119 505.6 119 512 119 518.4 119 524.8 119 531.2 119 537.6 119 544 119 550.4 119 556.8 119 563.2 119 569.6 119 576 119 582.4 119 588.8 119 595.2 119 601.6 119 608 119 614.4 119 620.8 119 627.2 119 633.6 119 640 119"/>
        <polyline id="Shape-Copy-17" points="0 439 6.4 417.667 12.8 397.4 19.2 378.733 25.6 361.667 32 345.133 38.4 330.2 44.8 315.8 51.2 303 57.6 290.733 64 279 70.4 268.333 76.8 258.2 83.2 249.133 89.6 240.067 96 232.067 102.4 224.6 108.8 217.667 115.2 210.733 121.6 204.867 128 199 134.4 193.667 140.8 188.867 147.2 184.067 153.6 179.8 160 175.533 166.4 171.8 172.8 168.067 179.2 164.867 185.6 161.667 192 159 198.4 156.333 204.8 153.667 211.2 151.533 217.6 149.4 224 147.267 230.4 145.133 236.8 143.533 243.2 141.933 249.6 140.333 256 139.267 262.4 137.667 268.8 136.6 275.2 135 281.6 133.933 288 133.4 294.4 132.333 300.8 131.267 307.2 130.733 313.6 129.667 320 129.133 326.4 128.067 332.8 127.533 339.2 127 345.6 126.467 352 125.933 358.4 125.4 364.8 125.4 371.2 124.867 377.6 124.333 384 123.8 390.4 123.8 396.8 123.267 403.2 123.267 409.6 122.733 416 122.733 422.4 122.2 428.8 122.2 435.2 121.667 441.6 121.667 448 121.667 454.4 121.133 460.8 121.133 467.2 121.133 473.6 121.133 480 120.6 486.4 120.6 492.8 120.6 499.2 120.6 505.6 120.6 512 120.067 518.4 120.067 524.8 120.067 531.2 120.067 537.6 120.067 544 120.067 550.4 120.067 556.8 119.533 563.2 119.533 569.6 119.533 576 119.533 582.4 119.533 588.8 119.533 595.2 119.533 601.6 119.533 608 119.533 614.4 119.533 620.8 119.533 627.2 119.533 633.6 119.533 640 119"/>
        <polyline id="Shape-Copy-20" points="0 439 6.4 393.667 12.8 375.533 19.2 361.133 25.6 349.4 32 339.267 38.4 329.667 44.8 321.133 51.2 313.667 57.6 306.2 64 299.267 70.4 292.867 76.8 287 83.2 281.133 89.6 275.8 96 270.467 102.4 265.133 108.8 260.333 115.2 256.067 121.6 251.267 128 247 134.4 242.733 140.8 239 147.2 234.733 153.6 231 160 227.267 166.4 223.533 172.8 220.333 179.2 217.133 185.6 213.4 192 210.733 198.4 207.533 204.8 204.333 211.2 201.667 217.6 198.467 224 195.8 230.4 193.133 236.8 190.467 243.2 187.8 249.6 185.667 256 183 262.4 180.867 268.8 178.2 275.2 176.067 281.6 173.933 288 171.8 294.4 169.667 300.8 167.533 307.2 165.933 313.6 163.8 320 161.667 326.4 160.067 332.8 158.467 339.2 156.333 345.6 154.733 352 153.133 358.4 151.533 364.8 149.933 371.2 148.333 377.6 147.267 384 145.667 390.4 144.6 396.8 143 403.2 141.933 409.6 140.333 416 139.267 422.4 138.2 428.8 137.133 435.2 136.067 441.6 135 448 133.933 454.4 132.867 460.8 131.8 467.2 130.733 473.6 130.2 480 129.133 486.4 128.6 492.8 127.533 499.2 127 505.6 125.933 512 125.4 518.4 124.867 524.8 124.333 531.2 123.8 537.6 123.267 544 122.733 550.4 122.2 556.8 121.667 563.2 121.133 569.6 121.133 576 120.6 582.4 120.067 588.8 120.067 595.2 119.533 601.6 119.533 608 119.533 614.4 119 620.8 119 627.2 119 633.6 119 640 119"/>
        <polyline id="Shape-Copy-23" points="0 439 6.4 424.067 12.8 409.667 19.2 395.8 25.6 381.933 32 368.6 38.4 355.8 44.8 343.533 51.2 331.267 57.6 319.533 64 308.333 70.4 297.133 76.8 286.467 83.2 276.333 89.6 266.2 96 256.6 102.4 247 108.8 238.467 115.2 229.4 121.6 221.4 128 213.4 134.4 205.4 140.8 197.933 147.2 191 153.6 184.067 160 177.667 166.4 171.267 172.8 165.4 179.2 159.533 185.6 153.667 192 148.867 198.4 143.533 204.8 139.267 211.2 134.467 217.6 130.2 224 126.467 230.4 122.733 236.8 119 243.2 115.8 249.6 112.6 256 109.933 262.4 107.267 268.8 104.6 275.2 101.933 281.6 99.8 288 98.2 294.4 96.6 300.8 95 307.2 93.4 313.6 91.8 320 90.733 326.4 90.2 332.8 89.133 339.2 88.6 345.6 88.067 352 87.533 358.4 87 364.8 87 371.2 87 377.6 87 384 87 390.4 87.533 396.8 88.067 403.2 88.067 409.6 88.6 416 89.133 422.4 90.2 428.8 90.733 435.2 91.8 441.6 92.333 448 93.4 454.4 94.467 460.8 95.533 467.2 96.067 473.6 97.133 480 98.733 486.4 99.8 492.8 100.867 499.2 101.933 505.6 103 512 104.067 518.4 105.133 524.8 106.2 531.2 107.267 537.6 108.867 544 109.4 550.4 110.467 556.8 111.533 563.2 112.6 569.6 113.667 576 114.2 582.4 115.267 588.8 115.8 595.2 116.867 601.6 117.4 608 117.933 614.4 117.933 620.8 118.467 627.2 119 633.6 119 640 119"/>
        <polyline id="Shape-Copy-26" points="0 439 6.4 411.262 12.8 373.39 19.2 329.117 25.6 281.109 32 232.035 38.4 184.028 44.8 139.755 51.2 99.748 57.6 66.143 64 38.939 70.4 19.203 76.8 6.401 83.2 0 89.6 .533 96 5.868 102.4 15.469 108.8 28.804 115.2 44.807 121.6 61.343 128 78.945 134.4 96.015 140.8 111.484 147.2 125.886 153.6 137.621 160 147.222 166.4 154.157 172.8 158.957 179.2 161.091 185.6 161.091 192 158.957 198.4 155.224 204.8 150.956 211.2 145.089 217.6 139.221 224 133.354 230.4 126.953 236.8 121.618 243.2 116.284 249.6 112.55 256 108.817 262.4 106.683 268.8 105.083 275.2 104.016 281.6 104.016 288 104.549 294.4 106.149 300.8 107.75 307.2 109.883 313.6 112.017 320 114.151 326.4 116.284 332.8 117.885 339.2 120.018 345.6 121.085 352 122.685 358.4 123.219 364.8 123.752 371.2 124.286 377.6 124.286 384 123.752 390.4 123.752 396.8 122.685 403.2 122.152 409.6 121.618 416 120.552 422.4 120.018 428.8 119.485 435.2 118.418 441.6 117.885 448 117.885 454.4 117.351 460.8 117.351 467.2 117.351 473.6 117.351 480 117.351 486.4 117.351 492.8 117.351 499.2 117.885 505.6 117.885 512 118.418 518.4 118.418 524.8 118.951 531.2 118.951 537.6 119.485 544 119.485 550.4 119.485 556.8 119.485 563.2 119.485 569.6 119.485 576 119.485 582.4 119.485 588.8 119.485 595.2 119.485 601.6 119.485 608 118.951 614.4 118.951 620.8 118.951 627.2 118.951 633.6 118.951 640 118.951"/>
      </g>
      <g id="in" fill-rule="nonzero" stroke="#18FF92" stroke-width="2" transform="translate(0 136)">
        <polyline id="Shape-Copy" points="0 320 6.4 320 12.8 320 19.2 319.467 25.6 319.467 32 318.933 38.4 318.4 44.8 317.867 51.2 317.333 57.6 316.8 64 316.267 70.4 315.2 76.8 314.133 83.2 313.6 89.6 312.533 96 310.933 102.4 309.867 108.8 308.8 115.2 307.2 121.6 305.6 128 304.533 134.4 302.933 140.8 301.333 147.2 299.2 153.6 297.6 160 295.467 166.4 293.867 172.8 291.733 179.2 289.6 185.6 287.467 192 285.333 198.4 282.667 204.8 280.533 211.2 277.867 217.6 275.2 224 273.067 230.4 270.4 236.8 267.2 243.2 264.533 249.6 261.867 256 258.667 262.4 256 268.8 252.8 275.2 249.6 281.6 246.4 288 243.2 294.4 240 300.8 236.8 307.2 233.067 313.6 229.867 320 226.133 326.4 222.933 332.8 219.2 339.2 215.467 345.6 211.733 352 208 358.4 203.733 364.8 200 371.2 196.267 377.6 192 384 188.267 390.4 184 396.8 179.733 403.2 175.467 409.6 171.2 416 166.933 422.4 162.667 428.8 158.4 435.2 154.133 441.6 149.867 448 145.067 454.4 140.8 460.8 136 467.2 131.733 473.6 126.933 480 122.667 486.4 117.867 492.8 113.067 499.2 108.267 505.6 103.467 512 98.667 518.4 93.867 524.8 89.067 531.2 84.267 537.6 79.467 544 74.667 550.4 69.867 556.8 65.067 563.2 59.733 569.6 54.933 576 50.133 582.4 45.333 588.8 40 595.2 35.2 601.6 29.867 608 25.067 614.4 20.267 620.8 14.933 627.2 10.133 633.6 4.8 640 0"/>
        <polyline id="Shape-Copy-4" points="0 320 6.4 320 12.8 320 19.2 319.467 25.6 319.467 32 319.467 38.4 318.933 44.8 318.4 51.2 317.867 57.6 317.333 64 316.8 70.4 316.267 76.8 315.2 83.2 314.667 89.6 313.6 96 313.067 102.4 312 108.8 310.933 115.2 309.867 121.6 308.267 128 307.2 134.4 306.133 140.8 304.533 147.2 302.933 153.6 301.333 160 300.267 166.4 298.133 172.8 296.533 179.2 294.933 185.6 293.333 192 291.2 198.4 289.067 204.8 287.467 211.2 285.333 217.6 283.2 224 281.067 230.4 278.4 236.8 276.267 243.2 273.6 249.6 271.467 256 268.8 262.4 266.133 268.8 263.467 275.2 260.8 281.6 258.133 288 255.467 294.4 252.267 300.8 249.067 307.2 246.4 313.6 243.2 320 240 326.4 236.8 332.8 233.6 339.2 229.867 345.6 226.667 352 222.933 358.4 219.733 364.8 216 371.2 212.267 377.6 208.533 384 204.8 390.4 201.067 396.8 196.8 403.2 193.067 409.6 188.8 416 185.067 422.4 180.8 428.8 176.533 435.2 172.267 441.6 167.467 448 163.2 454.4 158.933 460.8 154.133 467.2 149.333 473.6 144.533 480 140.267 486.4 134.933 492.8 130.133 499.2 125.333 505.6 120.533 512 115.2 518.4 109.867 524.8 105.067 531.2 99.733 537.6 94.4 544 89.067 550.4 83.2 556.8 77.867 563.2 72 569.6 66.667 576 60.8 582.4 54.933 588.8 49.067 595.2 43.2 601.6 37.333 608 31.467 614.4 25.067 620.8 18.667 627.2 12.8 633.6 6.4 640 0"/>
        <polyline id="Shape-Copy-7" points="0 320 6.4 320 12.8 320 19.2 320 25.6 320 32 320 38.4 320 44.8 320 51.2 320 57.6 320 64 319.467 70.4 319.467 76.8 319.467 83.2 319.467 89.6 318.933 96 318.933 102.4 318.933 108.8 318.4 115.2 318.4 121.6 317.867 128 317.333 134.4 316.8 140.8 316.8 147.2 316.267 153.6 315.733 160 315.2 166.4 314.133 172.8 313.6 179.2 313.067 185.6 312 192 311.467 198.4 310.4 204.8 309.333 211.2 308.267 217.6 307.2 224 306.133 230.4 305.067 236.8 304 243.2 302.4 249.6 300.8 256 299.733 262.4 298.133 268.8 296.533 275.2 294.4 281.6 292.8 288 290.667 294.4 289.067 300.8 286.933 307.2 284.8 313.6 282.133 320 280 326.4 277.333 332.8 275.2 339.2 272.533 345.6 269.867 352 266.667 358.4 264 364.8 260.8 371.2 257.6 377.6 254.4 384 250.667 390.4 247.467 396.8 243.733 403.2 240 409.6 236.267 416 232 422.4 228.267 428.8 224 435.2 219.2 441.6 214.933 448 210.133 454.4 205.333 460.8 200.533 467.2 195.733 473.6 190.4 480 185.067 486.4 179.733 492.8 173.867 499.2 168 505.6 162.133 512 156.267 518.4 149.867 524.8 143.467 531.2 137.067 537.6 130.133 544 123.733 550.4 116.267 556.8 109.333 563.2 101.867 569.6 94.4 576 86.933 582.4 78.933 588.8 70.933 595.2 62.4 601.6 54.4 608 45.867 614.4 36.8 620.8 27.733 627.2 18.667 633.6 9.6 640 0"/>
        <polyline id="Shape-Copy-10" points="0 320 6.4 320 12.8 320 19.2 320 25.6 320 32 320 38.4 320 44.8 320 51.2 320 57.6 320 64 320 70.4 320 76.8 320 83.2 320 89.6 320 96 320 102.4 320 108.8 319.467 115.2 319.467 121.6 319.467 128 319.467 134.4 319.467 140.8 319.467 147.2 318.933 153.6 318.933 160 318.933 166.4 318.4 172.8 318.4 179.2 317.867 185.6 317.867 192 317.333 198.4 316.8 204.8 316.8 211.2 316.267 217.6 315.733 224 315.2 230.4 314.667 236.8 314.133 243.2 313.067 249.6 312.533 256 312 262.4 310.933 268.8 309.867 275.2 308.8 281.6 308.267 288 306.667 294.4 305.6 300.8 304.533 307.2 302.933 313.6 301.333 320 300.267 326.4 298.133 332.8 296.533 339.2 294.933 345.6 292.8 352 290.667 358.4 288.533 364.8 286.4 371.2 283.733 377.6 281.067 384 278.4 390.4 275.733 396.8 272.533 403.2 269.333 409.6 266.133 416 262.933 422.4 259.2 428.8 255.467 435.2 251.733 441.6 247.467 448 243.2 454.4 238.933 460.8 234.133 467.2 229.333 473.6 224 480 218.667 486.4 213.333 492.8 207.467 499.2 201.6 505.6 195.2 512 188.8 518.4 182.4 524.8 175.467 531.2 168 537.6 160.533 544 153.067 550.4 145.067 556.8 136.533 563.2 128 569.6 119.467 576 109.867 582.4 100.8 588.8 90.667 595.2 80.533 601.6 70.4 608 59.2 614.4 48 620.8 36.8 627.2 25.067 633.6 12.8 640 0"/>
        <polyline id="Shape-Copy-13" points="0 320 6.4 320 12.8 320 19.2 320 25.6 320 32 320 38.4 320 44.8 320 51.2 320 57.6 320 64 320 70.4 320 76.8 320 83.2 320 89.6 320 96 320 102.4 320 108.8 320 115.2 320 121.6 320 128 320 134.4 320 140.8 320 147.2 320 153.6 320 160 319.467 166.4 319.467 172.8 319.467 179.2 319.467 185.6 319.467 192 319.467 198.4 318.933 204.8 318.933 211.2 318.933 217.6 318.4 224 318.4 230.4 317.867 236.8 317.867 243.2 317.333 249.6 317.333 256 316.8 262.4 316.267 268.8 315.733 275.2 315.2 281.6 314.667 288 314.133 294.4 313.6 300.8 312.533 307.2 312 313.6 310.933 320 309.867 326.4 308.8 332.8 307.733 339.2 306.667 345.6 305.067 352 304 358.4 302.4 364.8 300.8 371.2 299.2 377.6 297.067 384 294.933 390.4 292.8 396.8 290.667 403.2 288 409.6 285.867 416 282.667 422.4 280 428.8 276.8 435.2 273.6 441.6 269.867 448 266.133 454.4 262.4 460.8 258.133 467.2 253.867 473.6 249.067 480 244.267 486.4 238.933 492.8 233.6 499.2 227.733 505.6 221.333 512 214.933 518.4 208.533 524.8 201.6 531.2 194.133 537.6 186.133 544 178.133 550.4 169.6 556.8 160.533 563.2 150.933 569.6 141.333 576 131.2 582.4 120.533 588.8 109.333 595.2 97.6 601.6 85.333 608 72.533 614.4 59.2 620.8 45.333 627.2 30.933 633.6 15.467 640 0"/>
        <polyline id="Shape-Copy-16" points="0 320 6.4 319.467 12.8 319.467 19.2 319.467 25.6 319.467 32 319.467 38.4 319.467 44.8 319.467 51.2 319.467 57.6 319.467 64 319.467 70.4 319.467 76.8 319.467 83.2 319.467 89.6 318.933 96 318.933 102.4 318.933 108.8 318.933 115.2 318.933 121.6 318.933 128 318.933 134.4 318.4 140.8 318.4 147.2 318.4 153.6 318.4 160 318.4 166.4 317.867 172.8 317.867 179.2 317.867 185.6 317.867 192 317.333 198.4 317.333 204.8 317.333 211.2 316.8 217.6 316.8 224 316.267 230.4 316.267 236.8 315.733 243.2 315.733 249.6 315.2 256 315.2 262.4 314.667 268.8 314.133 275.2 313.6 281.6 313.6 288 313.067 294.4 312.533 300.8 312 307.2 311.467 313.6 310.933 320 309.867 326.4 309.333 332.8 308.267 339.2 307.733 345.6 306.667 352 305.6 358.4 305.067 364.8 304 371.2 302.4 377.6 301.333 384 300.267 390.4 298.667 396.8 297.067 403.2 295.467 409.6 293.867 416 291.733 422.4 289.6 428.8 287.467 435.2 285.333 441.6 282.667 448 280 454.4 277.333 460.8 274.133 467.2 270.933 473.6 267.2 480 263.467 486.4 259.2 492.8 254.933 499.2 250.133 505.6 245.333 512 240 518.4 234.133 524.8 228.267 531.2 221.333 537.6 214.4 544 206.933 550.4 198.933 556.8 189.867 563.2 180.8 569.6 170.667 576 160 582.4 148.267 588.8 136 595.2 123.2 601.6 108.8 608 93.867 614.4 77.333 620.8 60.267 627.2 41.6 633.6 21.333 640 0"/>
        <polyline id="Shape-Copy-19" points="0 320 6.4 320 12.8 320 19.2 320 25.6 320 32 319.467 38.4 319.467 44.8 319.467 51.2 318.933 57.6 318.933 64 318.4 70.4 317.867 76.8 317.867 83.2 317.333 89.6 316.8 96 316.267 102.4 315.733 108.8 315.2 115.2 314.667 121.6 314.133 128 313.6 134.4 313.067 140.8 312 147.2 311.467 153.6 310.4 160 309.867 166.4 308.8 172.8 308.267 179.2 307.2 185.6 306.133 192 305.067 198.4 304 204.8 302.933 211.2 301.867 217.6 300.8 224 299.733 230.4 298.667 236.8 297.067 243.2 296 249.6 294.4 256 293.333 262.4 291.733 268.8 290.667 275.2 289.067 281.6 287.467 288 285.867 294.4 284.267 300.8 282.667 307.2 280.533 313.6 278.933 320 277.333 326.4 275.2 332.8 273.067 339.2 271.467 345.6 269.333 352 267.2 358.4 265.067 364.8 262.933 371.2 260.8 377.6 258.133 384 256 390.4 253.333 396.8 251.2 403.2 248.533 409.6 245.867 416 243.2 422.4 240.533 428.8 237.333 435.2 234.667 441.6 231.467 448 228.267 454.4 225.6 460.8 221.867 467.2 218.667 473.6 215.467 480 211.733 486.4 208 492.8 204.267 499.2 200 505.6 196.267 512 192 518.4 187.733 524.8 182.933 531.2 178.667 537.6 173.867 544 168.533 550.4 163.2 556.8 157.867 563.2 152 569.6 146.133 576 139.733 582.4 132.8 588.8 125.333 595.2 117.867 601.6 109.333 608 99.733 614.4 89.6 620.8 77.867 627.2 63.467 633.6 45.333 640 0"/>
        <polyline id="Shape-Copy-22" points="0 320 6.4 320 12.8 320 19.2 320.533 25.6 321.067 32 321.067 38.4 321.6 44.8 322.133 51.2 323.2 57.6 323.733 64 324.8 70.4 325.333 76.8 326.4 83.2 327.467 89.6 328.533 96 329.6 102.4 330.133 108.8 331.733 115.2 332.8 121.6 333.867 128 334.933 134.4 336 140.8 337.067 147.2 338.133 153.6 339.2 160 340.267 166.4 341.867 172.8 342.933 179.2 343.467 185.6 344.533 192 345.6 198.4 346.667 204.8 347.2 211.2 348.267 217.6 348.8 224 349.867 230.4 350.4 236.8 350.933 243.2 350.933 249.6 351.467 256 352 262.4 352 268.8 352 275.2 352 281.6 352 288 351.467 294.4 350.933 300.8 350.4 307.2 349.867 313.6 348.8 320 348.267 326.4 347.2 332.8 345.6 339.2 344 345.6 342.4 352 340.8 358.4 339.2 364.8 337.067 371.2 334.4 377.6 331.733 384 329.067 390.4 326.4 396.8 323.2 403.2 320 409.6 316.267 416 312.533 422.4 308.8 428.8 304.533 435.2 299.733 441.6 295.467 448 290.133 454.4 285.333 460.8 279.467 467.2 273.6 473.6 267.733 480 261.333 486.4 254.933 492.8 248 499.2 241.067 505.6 233.6 512 225.6 518.4 217.6 524.8 209.6 531.2 200.533 537.6 192 544 182.4 550.4 172.8 556.8 162.667 563.2 152.533 569.6 141.867 576 130.667 582.4 119.467 588.8 107.733 595.2 95.467 601.6 83.2 608 70.4 614.4 57.067 620.8 43.2 627.2 29.333 633.6 14.933 640 0"/>
        <polyline id="Shape-Copy-25" points="0 320 6.4 320 12.8 320 19.2 320 25.6 320 32 320 38.4 319.467 44.8 319.467 51.2 319.467 57.6 319.467 64 319.467 70.4 319.467 76.8 319.467 83.2 319.467 89.6 319.467 96 319.467 102.4 319.467 108.8 320 115.2 320 121.6 320.533 128 320.533 134.4 321.067 140.8 321.067 147.2 321.6 153.6 321.6 160 321.6 166.4 321.6 172.8 321.6 179.2 321.6 185.6 321.6 192 321.067 198.4 321.067 204.8 320.533 211.2 319.467 217.6 318.933 224 318.4 230.4 317.333 236.8 316.8 243.2 316.267 249.6 315.2 256 315.2 262.4 314.667 268.8 314.667 275.2 315.2 281.6 315.733 288 316.267 294.4 317.867 300.8 318.933 307.2 321.067 313.6 322.667 320 324.8 326.4 326.933 332.8 329.067 339.2 331.2 345.6 332.8 352 334.4 358.4 334.933 364.8 334.933 371.2 333.867 377.6 332.267 384 330.133 390.4 326.4 396.8 322.667 403.2 317.333 409.6 312 416 305.6 422.4 299.733 428.8 293.867 435.2 288 441.6 283.733 448 280 454.4 277.867 460.8 277.867 467.2 280 473.6 284.8 480 291.733 486.4 301.333 492.8 313.067 499.2 327.467 505.6 342.933 512 360 518.4 377.6 524.8 394.133 531.2 410.133 537.6 423.467 544 433.067 550.4 438.4 556.8 438.933 563.2 432.533 569.6 419.733 576 400 582.4 372.8 588.8 339.2 595.2 299.2 601.6 254.933 608 206.933 614.4 157.867 620.8 109.867 627.2 65.6 633.6 27.733 640 0"/>
      </g>
    </g>
  </g>
</svg>
