<svg xmlns="http://www.w3.org/2000/svg" viewBox="0 0 1500 1500">
  <g id="Page-2" fill="none" fill-rule="evenodd">
    <g id="sphere" stroke-width="8">
      <path id="elipse" stroke="#FF1461" d="M1257.57 1255.07c-85.914 85.916-179.94 131.188-210.01 101.117-30.07-30.07 15.201-124.095 101.117-210.01 85.915-85.916 179.94-131.187 210.01-101.117 30.07 30.07-15.2 124.096-101.116 210.01z"/>
      <path id="elipse" stroke="#FF7C72" d="M1254.743 1252.243c-128.483 128.482-269.046 196.23-313.956 151.32-44.91-44.91 22.838-185.473 151.321-313.955 128.482-128.483 269.045-196.231 313.955-151.32 44.91 44.91-22.838 185.472-151.32 313.955z"/>
      <path id="elipse" stroke="#FB89FB" d="M1246.61 1243.404c-159.919 159.92-336.097 243.022-393.504 185.615-57.407-57.407 25.696-233.585 185.615-393.505 159.92-159.92 336.098-243.022 393.505-185.615 57.407 57.407-25.696 233.585-185.615 393.505z"/>
      <path id="elipse" stroke="#61C3FF" d="M1223.63 1221.13c-185.89 185.89-391.352 281.814-458.912 214.253-67.561-67.56 28.363-273.023 214.253-458.912 185.89-185.89 391.351-281.814 458.912-214.253 67.56 67.56-28.364 273.022-214.253 458.912z"/>
      <path id="elipse" stroke="#5EF3FB" d="M1196.053 1193.553c-209.712 209.711-441.45 317.982-517.603 241.83-76.152-76.152 32.12-307.89 241.831-517.602 209.712-209.712 441.45-317.983 517.602-241.83 76.152 76.152-32.119 307.89-241.83 517.602z"/>
      <path id="elipse" stroke="#18FF92" d="M1161.05 1157.844c-229.432 229.433-483.015 347.835-566.392 264.458-83.377-83.377 35.025-336.96 264.458-566.393 229.433-229.433 483.016-347.835 566.393-264.458 83.377 83.377-35.025 336.96-264.458 566.393z"/>
      <path id="elipse" stroke="#1CE2B2" d="M1120.392 1117.892c-245.249 245.25-516.877 371.25-606.697 281.429-89.821-89.82 36.179-361.449 281.428-606.698 245.25-245.25 516.877-371.249 606.698-281.428 89.82 89.82-36.18 361.448-281.429 606.697z"/>
      <path id="elipse" stroke="#B08CFF" d="M1072.309 1069.809c-261.26 261.26-550.617 395.492-646.296 299.813-95.678-95.678 38.553-385.035 299.814-646.295 261.26-261.261 550.617-395.492 646.295-299.814 95.679 95.679-38.552 385.035-299.813 646.296z"/>
      <path id="elipse" stroke="#FBF38C" d="M1012.205 1009.705c-269.071 269.071-567.134 407.26-665.741 308.652-98.608-98.607 39.58-396.67 308.652-665.741 269.071-269.071 567.134-407.26 665.741-308.652 98.607 98.607-39.58 396.67-308.652 665.74z"/>
      <path id="elipse" stroke="#FF7C72" d="M940.787 938.287c-271.414 271.414-572.01 410.87-671.398 311.48-99.388-99.388 40.066-399.983 311.48-671.397 271.415-271.415 572.01-410.87 671.399-311.48 99.388 99.388-40.067 399.983-311.48 671.397z"/>
      <path id="elipse" stroke="#FF48AB" d="M864.42 861.92c-269.072 269.07-567.134 407.26-665.741 308.652-98.608-98.608 39.58-396.67 308.652-665.741 269.07-269.072 567.133-407.26 665.74-308.652 98.608 98.607-39.58 396.67-308.651 665.74z"/>
      <path id="elipse" stroke="#FF1461" d="M792.295 789.795c-261.261 261.26-550.617 395.491-646.296 299.813-95.678-95.678 38.553-385.035 299.813-646.296C707.073 182.052 996.43 47.821 1092.108 143.5c95.678 95.679-38.553 385.035-299.813 646.296z"/>
      <path id="elipse" stroke="#A6FF8F" d="M723.705 721.205c-245.249 245.25-516.877 371.25-606.697 281.429-89.82-89.82 36.179-361.449 281.428-606.698 245.25-245.25 516.877-371.249 606.698-281.428 89.82 89.82-36.18 361.448-281.429 606.697z"/>
      <path id="elipse" stroke="#FF7C72" d="M661.126 657.92C431.693 887.351 178.111 1005.753 94.734 922.376 11.357 839 129.759 585.417 359.192 355.985 588.625 126.552 842.207 8.15 925.584 91.527c83.377 83.377-35.025 336.96-264.458 566.392z"/>
      <path id="elipse" stroke="#FBF38C" d="M595.719 593.219c-209.712 209.712-441.45 317.983-517.602 241.83-76.152-76.152 32.119-307.89 241.83-517.602C529.66 107.736 761.397-.535 837.55 75.617c76.152 76.152-32.12 307.89-241.831 517.602z"/>
      <path id="elipse" stroke="#5A87FF" d="M537.03 534.53C351.14 720.418 145.677 816.342 78.116 748.781 10.557 681.222 106.48 475.76 292.37 289.87 478.26 103.98 683.722 8.056 751.282 75.617c67.561 67.56-28.363 273.023-214.253 458.912z"/>
      <path id="elipse" stroke="#B08CFF" d="M477.986 474.779C318.066 634.699 141.888 717.8 84.48 660.394 27.074 602.987 110.177 426.81 270.096 266.89 430.016 106.97 606.194 23.867 663.601 81.274c57.407 57.407-25.696 233.585-185.615 393.505z"/>
      <path id="elipse" stroke="#5EF3FB" d="M423.892 421.392C295.41 549.875 154.847 617.623 109.937 572.712c-44.91-44.91 22.838-185.472 151.32-313.955 128.483-128.482 269.046-196.23 313.956-151.32 44.91 44.91-22.838 185.473-151.321 313.955z"/>
      <path id="elipse" stroke="#1CE2B2" d="M367.324 364.824c-85.916 85.915-179.94 131.186-210.011 101.116-30.07-30.07 15.2-124.096 101.116-210.01 85.915-85.916 179.94-131.188 210.01-101.117 30.071 30.07-15.2 124.095-101.115 210.01z"/>
    </g>
  </g>
</svg>
