<svg xmlns="http://www.w3.org/2000/svg" viewBox="0 0 1000 520">
  <g id="Page-2" fill="none" fill-rule="evenodd">
    <g id="swissknife-anim" stroke-width="2">
      <path id="Shape" stroke="#1CE2B2" d="M721.023 344.772v69.776a1.968 1.968 0 0 1-1.965 1.96l-134.604-.04c-1.08 0-2.594.627-3.36 1.39l-39.085 38.964c-.766.764-2.28 1.39-3.36 1.39h-75.084a1.968 1.968 0 0 1-1.965-1.958v-33.498"/>
      <path id="Shape" stroke="#5A87FF" d="M615.878 211.565l45.383-45.231c.766-.764 1.376-2.273 1.376-3.35l-.06-10.382c0-1.078-.628-2.586-1.395-3.35l-43.221-43.077c-.767-.763-.767-2.017 0-2.762l82.531-82.255c.767-.763 2.28-1.39 3.361-1.39l44.774.098c1.081 0 2.595-.627 3.361-1.372l140.514-139.847"/>
      <path id="Shape" stroke="#1CE2B2" d="M447.65-220.685V44.787a3.998 3.998 0 0 0 3.993 3.992h54.437c1.074 0 1.954.882 1.954 1.96v147.506c0 1.077-.626 2.585-1.388 3.35l-47.44 47.386c-.762.764-1.387 2.272-1.387 3.35 0 2.252.625 3.76 1.387 4.524l53.302 53.263c.762.764 1.739 1.391 2.169 1.391.43 0 .781.882.781 1.96v70.168c0 1.077-.879 1.958-1.954 1.958l-84.993-.039c-1.075 0-2.58.627-3.342 1.391l-1.543 1.548c-.762.764-2.267 1.39-3.341 1.39h-9.203"/>
      <path id="Shape" stroke="#FBF38C" d="M-51-16.18v391.062a4.042 4.042 0 0 0 3.998 4.04L80.795 380"/>
      <path id="Shape" stroke="#1AA5D0" d="M835.014 229.999l49.506-49.443c.765-.764 2.275-1.391 3.354-1.391h91.892c1.078 0 2.589.627 3.354 1.39l27.028 26.994"/>
      <path id="Shape" stroke="#5A87FF" d="M835.014 229.999l49.506-49.443c.765-.764 2.275-1.391 3.354-1.391h91.892c1.078 0 2.589.627 3.354 1.39l27.028 26.994"/>
      <path id="Shape" stroke="#1CE2B2" d="M696.162 69.896l70.53.04c1.08 0 2.593-.627 3.359-1.391l91.235-90.972c.767-.764 2.28-1.391 3.36-1.391H941.4l-70.998-72.128c-.766-.764-1.395-2.272-1.395-3.35v-27.836"/>
      <path id="Shape" stroke="#FBF38C" d="M501.793 405.106V426.4c0 1.077-.63 2.585-1.397 3.35L319.762 609.597c-.767.764-2.282 1.39-3.364 1.39H207.577a1.969 1.969 0 0 0-1.968 1.96v23.37a1.969 1.969 0 0 1-1.967 1.958H120.32a1.969 1.969 0 0 0-1.968 1.96v45.799c0 1.077.885 1.958 1.968 1.958h36.828"/>
      <path id="Shape" stroke="#FB89FB" d="M423.825 512h147.064"/>
      <path id="Shape" stroke="#1CE2B2" d="M103.672-39.137L12.297 51.835c-.767.764-1.397 2.272-1.397 3.35v100.669c0 1.077.885 1.959 1.968 1.959H63.14c1.082 0 1.967.881 1.967 1.958l.079 26.916c0 1.077.885 1.959 1.968 1.959l334.885.137c1.082 0 1.967.882 1.967 1.959v36.788l-42.874 43.782c-.767.764-2.282 1.391-3.364 1.391H325.4"/>
      <path id="Shape" stroke="#FF1461" d="M380.532 101.866l-31.642 31.48c-.768.764-2.284 1.39-3.367 1.39h-62.26c-1.083 0-2.599.627-3.367 1.391l-2.677 3.664-264.103.02c-1.083 0-2.6-.628-3.367-1.392l-47.217-46.975c-.768-.764-2.284-1.39-3.367-1.39h-57.357l-1.123-34.614c0-1.078-.63-2.586-1.398-3.35l-66.414-65.937"/>
      <path id="Shape" stroke="#FBF38C" d="M645.393 77.732h7.82c1.084 0 2.6.627 3.369 1.39l45.741 45.604c.769.764 1.399 2.273 1.399 3.35v13.948c0 1.077.453 1.959 1.024 1.978.552 0 1.025.901 1.025 1.979v10.774l-.154 110.835a1.97 1.97 0 0 1-1.97 1.96H568.512c-1.083 0-2.6-.628-3.368-1.392l-12.194-12.125c-.768-.764-2.285-1.391-3.369-1.391h-46.115a2 2 0 0 0-1.99 1.959l-.177 26.739c0 1.077-.63 2.586-1.399 3.35l-8.806 8.756c-.768.764-2.285 1.39-3.368 1.39l-26.614-.058c-1.083 0-2.6.627-3.368 1.391l-48.047 47.778c-.768.764-2.285 1.39-3.368 1.39h-16.35l-79.343-.019c-1.083 0-2.6.627-3.349 1.391l-145.833 146.35c-.768.765-2.265 1.392-3.348 1.392h-186.04"/>
      <path id="Shape" stroke="#FF7C72" d="M86.425-44.589L230.173 99.496c.767.764 2.281 1.39 3.363 1.39h146.318c1.082 0 2.596.627 3.363 1.391l31.84 31.715c.767.764 1.396 2.272 1.396 3.35v192.757c0 1.078-.629 2.586-1.396 3.35l-7.571 7.542c-.767.764-2.282 1.39-3.363 1.39h-20.55l-20.612 20.98c-.767.765-2.006 2.018-2.773 2.782L229.937 496c-.767.764-1.396 2.272-1.396 3.35v186.945"/>
      <path id="Shape" stroke="#FF7C72" d="M259.823 237.619h94.619c1.081 0 2.596.627 3.363 1.39l14.93 14.869c.768.764 2.283 1.39 3.365 1.39h72.783c1.082 0 2.597.628 3.344 1.392l58.404 58.532c.768.764 2.263 1.39 3.344 1.39h103.078a1.969 1.969 0 0 0 1.967-1.958v-14.712a1.969 1.969 0 0 0-1.967-1.959l-6.688.02h-40.13a1.969 1.969 0 0 1-1.967-1.959V239.01c0-1.078-.63-2.586-1.397-3.35l-14.537-14.476c-.767-.764-1.396-2.273-1.396-3.35v-17.297c0-1.078-.63-2.586-1.397-3.35l-12.314-12.263c-.767-.764-2.282-1.39-3.364-1.39h-17.35c-1.082 0-2.597-.628-3.364-1.392l-41.683-41.51c-.767-.763-2.282-1.39-3.364-1.39h-41.23"/>
      <path id="Shape" stroke="#1CE2B2" d="M796.193 50.405h59.578c1.08 0 1.964.882 1.964 1.959v28.737c0 1.078.628 2.586 1.394 3.35l50.721 50.599c.766.764 1.394 2.272 1.394 3.35v101.472l104.723 104.273"/>
      <path id="Shape" stroke="#FB89FB" d="M579.431 161.73l12.506-12.439c.768-.744.768-1.998 0-2.762l-31.293-31.127c-.768-.744-.768-1.998 0-2.762l18.492-18.394c.768-.764 2.284-1.391 3.368-1.391l160.148-.196 422.668 1.196a1.97 1.97 0 0 1 1.97 1.959v71.5"/>
      <path id="Shape" stroke="#FBF38C" d="M374.615 342.03h-18.478c-1.08 0-2.594-.628-3.361-1.392l-74.675-74.419c-.767-.764-2.28-1.39-3.362-1.39h-38.428c-1.081 0-2.595-.628-3.362-1.392l-46.841-46.68-36.441-.04-56.8 71.591c-.767.764-1.396 2.273-1.396 3.35v23.899"/>
      <path id="Shape" stroke="#1CE2B2" d="M822.064 214.967l-46.882 46.602c-.768.764-2.286 1.391-3.37 1.391h-94.551c-1.084 0-2.601-.627-3.37-1.39l-30.565-30.344c-.768-.764-2.285-1.391-3.37-1.391l-34.9.039c-1.083 0-2.6.627-3.37 1.39l-29.54 29.365c-.768.764-2.285 1.39-3.369 1.39l-14.531-14.353c-.782-.772-2.32-1.4-3.42-1.401l-156.814-.242c-1.107-.002-2.642.63-3.424 1.406l-27.826 27.605c-.768.764-2.286 1.391-3.37 1.391h-442.31l-88.561.196-12.435 12.36"/>
      <path id="Shape" stroke="#5A87FF" d="M233.88 499.742l59.376-59.12c.767-.764 2.281-1.39 3.363-1.39h23.857c1.081 0 2.596-.627 3.363-1.391l46.395-46.211c.767-.764 2.282-1.391 3.364-1.391h33.434l153.21-.02a1.969 1.969 0 0 0 1.967-1.96V276.015c0-1.078-.63-2.586-1.396-3.35l-38.529-38.375c-.767-.764-1.396-2.273-1.396-3.35v-51.52c0-1.077-.63-2.585-1.397-3.35L409.373 66.39c-.767-.763-2.282-1.39-3.363-1.39l-179.958.196"/>
      <path id="Shape" stroke="#FBF38C" d="M332.559 347.122l-70.29-70.815"/>
      <path id="Shape" stroke="#FB89FB" d="M424.127 404.714h-36.748c-1.075 0-2.58.627-3.343 1.391l-68.394 68.543a1.954 1.954 0 0 0 0 2.762l31.835 32.777c.762.764 2.267 1.391 3.342 1.391h51.846"/>
      <path id="Shape" stroke="#FBF38C" d="M460.817 417.702v-4.74a1.967 1.967 0 0 0-1.964-1.96H445.69c-1.08 0-2.593-.626-3.36-1.39l-43.178-42.88c-.766-.765-1.395-2.273-1.395-3.35V172.974c0-1.078.629-2.586 1.395-3.35l20.804-20.745c.766-.764 1.394-2.272 1.394-3.35v-95.4c0-1.077-.628-2.585-1.394-3.349L233.353-139.296l-.589-40.883c0-1.077-.629-2.586-1.395-3.35l-11.57-11.538"/>
      <path id="Shape" stroke="#5A87FF" d="M216.76 600.998h99.023c1.082 0 2.597-.627 3.364-1.39L493.031 426.85c.767-.764 2.282-1.39 3.364-1.39h46.63c1.081 0 2.596-.627 3.344-1.391l51.33-51.461c.768-.764 1.378-2.273 1.378-3.35V167.294c0-1.078-.63-2.586-1.397-3.35l-51.705-51.304c-.767-.764-2.282-1.39-3.364-1.39h-17.904a1.969 1.969 0 0 1-1.967-1.96V64.823a1.969 1.969 0 0 0-1.968-1.96h-88.398a1.969 1.969 0 0 1-1.967-1.958V41.708c0-1.078-.63-2.586-1.397-3.35L250.778-139.081"/>
      <path id="Shape" stroke="#FBF38C" d="M942.645-20.175h-75.932c-1.082 0-2.597.627-3.364 1.391l-92.024 91.462c-.768.764-2.282 1.39-3.364 1.39l-131.505-.078c-1.082 0-2.597.627-3.364 1.372l-51.756 51.186a1.945 1.945 0 0 0 0 2.762l21.166 21.098c.768.764 1.397 2.272 1.397 3.35v15.69"/>
      <path id="Shape" stroke="#FF1461" d="M613.51 293.644h54.108c1.083 0 2.598.627 3.365 1.39l48.914 48.7c.767.763 2.282 1.39 3.364 1.39H768.3c1.082 0 2.597-.627 3.364-1.39l83.11-82.745c.768-.764 2.283-1.391 3.365-1.391h42.106c1.082 0 2.597.627 3.364 1.39l100.543 100.101"/>
      <path id="Shape" stroke="#FB89FB" d="M612.783 290.314h55.559c1.083 0 2.6.627 3.369 1.39l49.076 48.797c.769.764 2.286 1.391 3.37 1.391l41.846-.04c1.083 0 2.6-.626 3.369-1.39l62-61.686c.769-.764 1.4-2.273 1.4-3.35l-.1-268.176c0-1.077-.63-2.586-1.398-3.35l-99.67-99.277c-.769-.764-2.286-1.391-3.37-1.391h-365.03c-1.084 0-2.6.627-3.37 1.39L201.06 62.297c-.769.764-2.286 1.39-3.37 1.39H68.252c-1.083 0-2.6.627-3.369 1.391l-36.664 36.456c-.769.764-1.4 2.272-1.4 3.35V289.98"/>
      <path id="Shape" stroke="#5A87FF" d="M47.314 698.005v-98.417a1.97 1.97 0 0 1 1.97-1.96h264.114c1.084 0 2.6-.626 3.37-1.39l23.725-23.586a1.943 1.943 0 0 0 0-2.762l-80.753-80.1c-.769-.764 137.958-1.39 137.958-1.39 1.084 0 2.601-.627 3.37-1.391l53.579-53.263c.768-.764 2.286-1.391 3.37-1.391l88.477-.196c1.084 0 2.601-.627 3.37-1.39l55.55-55.223c.768-.764 1.399-2.272 1.399-3.35V265.925a1.97 1.97 0 0 1 1.97-1.959h28.967c1.084 0 2.601-.627 3.37-1.39l43.273-43.018c.769-.764 2.286-1.391 3.37-1.391h6.109c1.083 0 2.6-.627 3.37-1.391l53.066-52.754c.769-.764 2.286-1.39 3.37-1.39h13.577c1.084 0 2.601.626 3.37 1.39l62.348 61.98c.768.764 2.286 1.391 3.37 1.391h73.974c1.084 0 2.601.627 3.37 1.391l93.877 93.5-.563 44.623"/>
      <path id="Shape" stroke="#FF7C72" d="M587.557 285.456V251.84c0-1.078-.63-2.586-1.399-3.35l-31.402-31.225c-.769-.764-2.286-1.391-3.37-1.391h-36.82c-1.083 0-2.6.627-3.368 1.39l-74.251 73.832c-.769.764-2.286 1.391-3.37 1.391h-52.403a1.97 1.97 0 0 1-1.97-1.959v-71.5a1.97 1.97 0 0 0-1.97-1.96H-49.873c-1.083 0-2.6.628-3.368 1.392l-37.845 37.63c-.768.764-2.285 1.391-3.369 1.391h-56.934c-1.084 0-2.6.627-3.37 1.391l-13.179 13.105c-.768.764-2.285 1.391-3.369 1.391h-13.18"/>
      <path id="Shape" stroke="#FBF38C" d="M160.897 213H305.24l76.458.132a1.97 1.97 0 0 1 1.971 1.96v71.696a1.97 1.97 0 0 0 1.97 1.959h46.309c1.084 0 2.601-.627 3.37-1.391l74.27-74.008c.77-.764 2.286-1.391 3.37-1.391H705.09c1.084 0 2.601-.627 3.37-1.39l43.53-43.273c.768-.764 2.286-1.391 3.37-1.391h10.581c1.084 0 2.602.627 3.37 1.39l62.585 62.216c.769.764 2.286 1.39 3.37 1.39h73.798c1.084 0 2.601.628 3.37 1.392l94.024 93.481 9.257.57c.847 0 2.167-.627 2.936-1.39l103.968-89.366c.749-.764 2.01-.764 2.778 0l6.287 6.25"/>
      <path id="Shape" stroke="#1CE2B2" d="M540.18 420.19c1.296 0 3.102-.744 4.024-1.665l47.7-47.602c.924-.92 1.67-2.723 1.67-4.016V169.84c0-1.293-.746-3.095-1.67-4.015l-47.7-47.602c-.922-.92-2.728-1.665-4.024-1.665h-97.364c-1.296 0-3.102.744-4.024 1.665l-47.7 47.602c-.923.92-1.67 2.722-1.67 4.015v197.067c0 1.293.747 3.095 1.67 4.016l47.7 47.602c.922.92 2.728 1.665 4.024 1.665h97.364z"/>
      <path id="Shape" stroke="#5A87FF" d="M588.247 383.166v33.302c0 1.077-.624 2.586-1.384 3.35l-86.388 86.76c-.76.764-.507 1.391.566 1.391h70.023"/>
      <path id="Shape" stroke="#FF7C72" d="M416.04 129.32v-18.864c0-1.077-.629-2.586-1.394-3.35L383.908 76.43c-.765-.764-2.277-1.391-3.356-1.391H215.617"/>
      <path id="Shape" stroke="#FF7C72" d="M257.435-193.774l-12.549 12.478c-.768.764-1.399 2.273-1.418 3.35l-.355 21.45c-.02 1.078.59 2.586 1.36 3.35L433.578 34.89c.769.764 1.399 2.273 1.399 3.35v18.414a1.97 1.97 0 0 0 1.97 1.959h87.747a1.97 1.97 0 0 1 1.97 1.959v34.673a1.97 1.97 0 0 0 1.97 1.959h23.267c1.083 0 2.6.626 3.369 1.39l46.1 45.84c.767.763 1.398 2.271 1.398 3.349v138.636l.076 84.406c0 1.078-.63 2.586-1.38 3.35L547.9 427.438c-.768.764-2.285 1.39-3.368 1.39h-46.494c-1.084 0-2.6.628-3.369 1.392l-173.74 172.756c-.769.764-2.286 1.391-3.37 1.391H53.176a1.97 1.97 0 0 0-1.97 1.96v93.244a1.97 1.97 0 0 1-1.97 1.959h-224.253"/>
      <path id="Shape" stroke="#FB89FB" d="M356.066 468.967l63.14-62.862c.768-.764 2.283-1.39 3.365-1.39h124.352c1.082 0 2.597-.608 3.364-1.372l28.157-27.836c.767-.744 1.397-2.253 1.397-3.33v-37.964c0-1.077.885-1.959 1.967-1.959h52.476a1.969 1.969 0 0 0 1.968-1.959v-52.107c0-1.077.63-2.586 1.397-3.35l29.494-29.364c.767-.764 1.397-2.272 1.397-3.35v-76.006c0-1.077.885-1.959 1.967-1.959h37.788a4.004 4.004 0 0 0 4.007-4v-29.301c0-1.078.63-2.586 1.397-3.35l35.26-35.006"/>
      <path id="Shape" stroke="#5A87FF" d="M833.107 230.704l-45.52 45.29c-.769.764-2.285 1.39-3.368 1.39H559.177c-1.083 0-2.599-.626-3.367-1.39l-81.491-81.08c-.768-.764-2.284-1.39-3.367-1.39h-145.5c-1.083 0-2.599.626-3.367 1.39l-17.11 17.023"/>
      <path id="Shape" stroke="#1CE2B2" d="M228.524 496.196H181.95a1.964 1.964 0 0 0-1.959 1.959v26.641a1.964 1.964 0 0 1-1.958 1.959H89.35"/>
      <path id="Shape" stroke="#FF1461" d="M222.343 85.607l9.627 9.579c.768.764 2.284 1.39 3.366 1.39l146.468-.195c1.083 0 2.598.627 3.366 1.371l115.717 113.99a1.944 1.944 0 0 1 0 2.762l-37.128 37.043a1.968 1.968 0 0 0 0 2.781l49.53 49.287c.769.764 2.285 1.39 3.367 1.39H654.66c1.082 0 2.598.627 3.366 1.391l37.188 37.004c.768.764 2.283 1.391 3.366 1.391h21.655"/>
      <path id="Shape" stroke="#1CE2B2" d="M-175.018 697.866H41.41a1.97 1.97 0 0 0 1.97-1.959v-99.826a1.97 1.97 0 0 1 1.969-1.959H311.17c1.083 0 2.6-.627 3.367-1.39l20.148-20.04c.768-.764.768-2.018 0-2.762l-78.582-78.2c-.768-.764-1.399-2.273-1.399-3.35v-1.567a1.97 1.97 0 0 1 1.97-1.96l139.006.02c1.083 0 2.6-.627 3.368-1.39l53.61-53.479c.767-.764 2.028-1.39 2.796-1.39.768 0 1.418-.882 1.418-1.96v-6.62"/>
      <path id="Shape" stroke="#FB89FB" d="M252.919 113.815l72.995 72.656c.767.764 1.397 2.273 1.397 3.35v45.251c0 1.078.63 2.586 1.397 3.35l11.986 11.93c.767.764 2.283 1.39 3.365 1.39h9.84c1.083 0 2.598-.626 3.366-1.39l6.278-6.25c.767-.763 2.283-1.39 3.365-1.39h85.61c1.083 0 2.598-.627 3.366-1.39l62.958-62.667c.767-.764 2.283-1.39 3.365-1.39h161.184a1.97 1.97 0 0 1 1.968 1.959v178.653c0 1.077-.63 2.586-1.398 3.35l-11.395 11.342c-.767.764-2.283 1.39-3.365 1.39H463.54a1.97 1.97 0 0 1-1.969-1.958v-73.068a1.97 1.97 0 0 0-1.968-1.959h-82.067a1.97 1.97 0 0 1-1.968-1.959v-32.518a1.97 1.97 0 0 0-1.968-1.959h-6.889c-1.082 0-2.597-.627-3.365-1.39l-7.42-7.386"/>
      <path id="Shape" stroke="#FF1461" d="M590.655-222.346v211.359c0 1.077.629 2.585 1.396 3.35l46.58 46.406c.767.764 1.397 2.272 1.397 3.35v35.79l-2.478-.138c-.747 0-1.966.627-2.733 1.391L616.55 97.36c-.767.764-1.396 2.273-1.396 3.35v116.947c0 1.078.63 2.586 1.377 3.35l46.384 46.583c.767.764 1.376 2.273 1.376 3.35l-.02 30.344c0 1.077-.629 2.585-1.395 3.35l-4.896 4.877c-.767.764-2.281 1.39-3.363 1.39H539.925a1.968 1.968 0 0 0-1.966 1.96v36.005a1.968 1.968 0 0 1-1.967 1.959h-92.414c-1.082 0-2.596.627-3.363 1.39l-19.525 19.453c-.766.764-2.28 1.39-3.362 1.39h-63.412"/>
      <path id="Shape" stroke="#FF1461" d="M473.888 557.193h-40.4c-1.083 0-2.599-.627-3.367-1.391l-16.321-16.24c-.768-.763-2.284-1.39-3.367-1.39H380.96l-62.62-.036c-1.083 0-2.6-.627-3.367-1.39L109.92 332.723c-.768-.764-2.284-1.39-3.367-1.39h-36.05c-1.082 0-2.598-.627-3.366-1.391L-46.049 217.324"/>
      <path id="Shape" stroke="#1CE2B2" d="M216.82 446.44l24.34-24.272c.767-.764 2.28-1.39 3.36-1.39h121.016c1.08 0 2.593.626 3.36 1.39l34.182 34.086c.767.764 2.28 1.39 3.36 1.39h54.143"/>
      <path id="Shape" stroke="#FBF38C" d="M573.413 134.736l-20.424-21.215c-.736-.764-1.34-2.272-1.34-3.35v-332.75"/>
      <path id="Shape" stroke="#1CE2B2" d="M694.393 48.015v20.118a1.97 1.97 0 0 1-1.97 1.96h-94.38c-1.083 0-2.6.626-3.369 1.39l-50.224 49.933c-.768.764-1.399 2.272-1.399 3.35v56.416c0 1.078.631 2.586 1.4 3.35l10.62 10.559c.768.764 1.398 2.272 1.398 3.35v121.452a1.97 1.97 0 0 1-1.97 1.96H369.977c-1.084 0-2.6-.628-3.37-1.392l-21.18-21.058-15.743 14.79c-.769.764-2.286 1.39-3.37 1.39h-103.62c-1.083 0-2.6.628-3.37 1.372L157.3 378.249c-.769.764-2.286 1.372-3.37 1.372H84.16c-1.083 0-2.6.627-3.369 1.39l-68.134 67.74c-.768.764-2.285 1.39-3.37 1.39h-34.362c-1.084 0-2.6.628-3.37 1.392l-61.572 61.216c-.769.764-1.4 2.272-1.4 3.35v98.024a1.97 1.97 0 0 1-1.97 1.959h-30.717c-1.084 0-2.6.626-3.37 1.39l-48.233 47.955"/>
      <path id="Shape" stroke="#FB89FB" d="M124.548 278.031v34.085c0 1.078-.629 2.586-1.394 3.35l-56.218 55.888c-.766.764-2.278 1.39-3.358 1.39H-93.59"/>
      <path id="Shape" stroke="#FF1461" d="M920.118 272.585l-14.88-14.946c-.76-.764-2.261-1.39-3.334-1.39H856.39c-1.072 0-2.574.626-3.335 1.39l-14.333 14.398c-.76.764-1.384.51-1.384-.568V236.54c0-1.077-.624-2.585-1.385-3.35l-2.457-2.468"/>
      <path id="Shape" stroke="#FB89FB" d="M767.768 94.246v54.438c0 1.077.63 2.586 1.397 3.35l86.147 85.78c.767.765 2.282 1.392 3.364 1.392h98.344c1.082 0 2.597-.627 3.344-1.391l22.545-22.802c.768-.764 2.263-1.39 3.345-1.39h106.095a1.969 1.969 0 0 0 1.967-1.96l.04-95.242c0-1.078.885-1.96 1.967-1.96h38.913c1.082 0 1.967.882 1.967 1.96v48.091"/>
      <path id="Shape" stroke="#1CE2B2" d="M900.228-17.922l19.115 19.06c.766.764 2.279 1.391 3.36 1.391h176.686c1.08 0 1.964.882 1.964 1.96v100.845a3.003 3.003 0 0 0 2.999 2.996h36.252c1.08 0 1.965.882 1.965 1.96v54.653"/>
      <path id="Shape" stroke="#5A87FF" d="M-25.83 654.75h241.125c1.081 0 1.965-.88 1.965-1.958V528.89a1.967 1.967 0 0 0-1.965-1.959h-29.998a1.967 1.967 0 0 1-1.964-1.959v-26.758a1.967 1.967 0 0 0-1.965-1.96h-20.784"/>
      <path id="Shape" stroke="#FF7C72" d="M399.483 352.098h9.512c1.08 0 2.594-.627 3.36-1.39l48.05-47.838c.767-.764 2.28-1.39 3.362-1.39h24.172c1.081 0 2.594.626 3.36 1.39l23.171 23.096c.767.764 2.28 1.39 3.36 1.39h110.645c1.08 0 1.965-.88 1.965-1.958V270.94c0-1.077-.63-2.586-1.396-3.33l-20.281-20.04c-.766-.764-2.024-1.998-2.79-2.762l-1.16-1.156c-.767-.764-2.28-1.39-3.36-1.39h-11.615a1.968 1.968 0 0 1-1.966-1.96V164.59c0-1.077.885-1.959 1.966-1.959h77.097"/>
      <path id="Shape" stroke="#FF1461" d="M696.346 344.772v84.488a1.96 1.96 0 0 1-1.95 1.959h-40.31a1.96 1.96 0 0 1-1.95-1.96l-.04-31.205a1.96 1.96 0 0 0-1.95-1.959h-39.784c-1.072 0-1.326-.627-.565-1.39l19.775-19.766c.76-.764 1.384-2.272 1.384-3.35v-32.518a1.96 1.96 0 0 0-1.95-1.959H610.09"/>
      <path id="Shape" stroke="#1CE2B2" d="M-93.944 258.187v111.189c0 1.077.63 2.585 1.397 3.35l48.925 48.718c.767.764 2.282 1.39 3.364 1.39h21.738c1.082 0 2.597.627 3.364 1.391L97.547 536.452c.768.764 2.282 1.39 3.364 1.39H271.04c1.082 0 1.967.882 1.967 1.96v60.412"/>
    </g>
  </g>
</svg>
