<svg xmlns="http://www.w3.org/2000/svg" viewBox="0 0 156 108">
  <g id="icon-examples" fill="none" fill-rule="evenodd">
    <polygon id="Rectangle-50-Copy-18" stroke="#242423" stroke-width=".75" points="52 34 104 34 104 58 52 58"/>
    <polygon id="Rectangle-50-Copy-14" stroke="#242423" stroke-width=".75" points="2 10 52 10 52 34 2 34"/>
    <polygon id="Rectangle-50-Copy-15" stroke="#242423" stroke-width=".75" points="52 10 104 10 104 34 52 34"/>
    <polygon id="Rectangle-50-Copy-16" stroke="#242423" stroke-width=".75" points="104 10 154 10 154 34 104 34"/>
    <polygon id="Rectangle-50-Copy-19" stroke="#242423" stroke-width=".75" points="2 34 52 34 52 58 2 58"/>
    <polygon id="Rectangle-50-Copy-17" stroke="#242423" stroke-width=".75" points="104 34 154 34 154 58 104 58"/>
    <polygon id="Rectangle-50-Copy-22" stroke="#242423" stroke-width=".75" points="2 58 52 58 52 82 2 82"/>
    <polygon id="Rectangle-50-Copy-21" stroke="#242423" stroke-width=".75" points="52 58 104 58 104 82 52 82"/>
    <polygon id="Rectangle-50-Copy-20" stroke="#242423" stroke-width=".75" points="104 58 154 58 154 82 104 82"/>
    <polygon id="Rectangle-50-Copy-25" stroke="#242423" stroke-width=".75" points="2 82 52 82 52 106 2 106"/>
    <polygon id="Rectangle-50-Copy-24" stroke="#242423" stroke-width=".75" points="52 82 104 82 104 106 52 106"/>
    <polygon id="Rectangle-50-Copy-23" stroke="#242423" stroke-width=".75" points="104 82 154 82 154 106 104 106"/>
    <polygon id="Rectangle-51" stroke="#242423" stroke-width=".75" points="2 2 154 2 154 10 2 10"/>
  </g>
</svg>
