<svg xmlns="http://www.w3.org/2000/svg" viewBox="0 0 156 108">
  <g id="icon-documentation" fill="none" fill-rule="evenodd">
    <polygon id="Rectangle-50-Copy-3" stroke="#242423" stroke-width=".75" points="42 26 90 26 90 42 42 42"/>
    <polygon id="Rectangle-50-Copy" stroke="#242423" stroke-width=".75" points="42 10 90 10 90 26 42 26"/>
    <polygon id="Rectangle-50-Copy-4" stroke="#242423" stroke-width=".75" points="42 42 90 42 90 58 42 58"/>
    <polygon id="Rectangle-50-Copy-5" stroke="#242423" stroke-width=".75" points="42 58 90 58 90 74 42 74"/>
    <polygon id="Rectangle-50-Copy-6" stroke="#242423" stroke-width=".75" points="42 74 90 74 90 90 42 90"/>
    <polygon id="Rectangle-50-Copy-7" stroke="#242423" stroke-width=".75" points="42 90 90 90 90 106 42 106"/>
    <polygon id="Rectangle-50-Copy-8" stroke="#242423" stroke-width=".75" points="42 2 90 2 90 10 42 10"/>
    <polygon id="Rectangle-50-Copy-9" stroke="#242423" stroke-width=".75" points="90 2 154 2 154 10 90 10"/>
    <polygon id="Rectangle-50-Copy-12" stroke="#242423" stroke-width=".75" points="90 10 154 10 154 106 90 106"/>
    <polygon id="Rectangle-50-Copy-10" stroke="#242423" stroke-width=".75" points="2 2 42 2 42 10 2 10"/>
    <polygon id="Rectangle-50-Copy-11" stroke="#242423" stroke-width=".75" points="2 10 42 10 42 106 2 106"/>
  </g>
</svg>
